<svg width="72" height="72" viewBox="0 0 72 72" fill="none" xmlns="http://www.w3.org/2000/svg">
<path d="M36 67C53.1208 67 67 53.1208 67 36C67 18.8792 53.1208 5 36 5C18.8792 5 5 18.8792 5 36C5 53.1208 18.8792 67 36 67Z" stroke="#2D2D2D" stroke-width="2"/>
<path d="M36 55.9766C47.0457 55.9766 56 47.0223 56 35.9766C56 24.9309 47.0457 15.9766 36 15.9766C24.9543 15.9766 16 24.9309 16 35.9766C16 47.0223 24.9543 55.9766 36 55.9766Z" stroke="#2D2D2D" stroke-width="2"/>
<path d="M36 45.9766C41.5228 45.9766 46 41.4994 46 35.9766C46 30.4537 41.5228 25.9766 36 25.9766C30.4772 25.9766 26 30.4537 26 35.9766C26 41.4994 30.4772 45.9766 36 45.9766Z" stroke="#2D2D2D" stroke-width="2"/>
</svg>
