<svg fill="none" height="40" viewBox="0 0 346 40" width="346" xmlns="http://www.w3.org/2000/svg">
  <g fill="#fff" transform="translate(114.5, 0)">
    <path
      d="m18.16 36.1506c-.6127.0178-1.209-.1996-1.6668-.6077-.4577-.4082-.7422-.976-.7952-1.5873l-.2771-2.1737c-2.6387-.7528-4.1824-2.7073-4.5835-5.8108l-2.37489-18.31454c-.50945-.08207-1.02509-.11919-1.541-.11094-.76368-.00626-1.52458.09239-2.26145.29318v27.7756h-4.66006v-22.3266c0-3.0296 1.35897-5.16903 3.83413-6.05913v-1.43949c0-1.664 1.01065-2.78126 2.51211-2.78126 1.50145 0 2.44347.93501 2.68629 2.64127l.1847 1.33385c2.70997.75803 4.29327 2.93706 4.76297 6.47376l2.1955 17.6542c1.3116.2536 2.6596.2536 3.9713 0l2.1955-17.6516c.4591-3.5393 2.0608-5.71833 4.7629-6.48429l.1847-1.33384c.2428-1.69833 1.198-2.64127 2.6863-2.64127s2.5121 1.11726 2.5121 2.78126v1.43949c2.4752.8901 3.8341 3.02955 3.8341 6.05905v22.3267h-4.6653v-27.77034c-.7369-.20079-1.4978-.29943-2.2614-.29318-.5159-.00825-1.0316.02887-1.5411.11093l-2.3748 18.31719c-.3932 3.048-1.9739 5.0501-4.5836 5.8108l-.2612 2.1764c-.0407.6181-.3236 1.1952-.7871 1.6057s-1.0702.6213-1.6881.5866zm-1.8762-4.1574.2402 1.8726c.0251.4107.211.7948.5173 1.0693.3062.2744.7082.4169 1.1187.3967.2042.0146.4094-.0119.6032-.078s.3724-.1704.5252-.3069c.1528-.1364.2767-.3022.3644-.4874.0876-.1852.1372-.3862.1459-.591l.2401-1.8753c-1.2433.2042-2.5116.2042-3.755 0zm16.2047 2.8024h3.0029v-21.5078c0-2.5674-1.0344-4.33967-3.0029-5.16638zm-31.665207 0h3.010837v-26.67418c-1.96588.82671-2.989724 2.59898-2.989724 5.16638zm8.512677-26.9119 2.32743 17.9791c.3324 2.6016 1.5595 4.2841 3.6441 5.0184l-2.1506-17.3214c-.3958-3.0533-1.6492-4.91805-3.82093-5.6761zm17.65073 0c-2.1717.75805-3.4304 2.6228-3.821 5.6788l-2.1505 17.3081c2.0872-.7342 3.3116-2.4167 3.6441-5.0184zm-22.32136-.91916c.74021-.18016 1.49967-.26886 2.26143-.26412.47637-.00504.95247.0232 1.42491.08452l-.1425-1.03802c-.18204-1.2731-.8101-1.91756-1.86294-1.91756-1.05287 0-1.6809.74748-1.6809 1.94925zm24.73056-.26412c.7618-.00474 1.5212.08396 2.2614.26412v-1.17536c0-1.20178-.6439-1.94926-1.6809-1.94926-1.0371 0-1.6809.64447-1.8629 1.91756l-.1425 1.03802c.4724-.06131.9485-.08955 1.4249-.08452z"/>
    <path d="m49.1865 35.6146h-4.5783v-32.07023h4.5783zm-3.7471-.832h2.9159v-30.40623h-2.9159z"/>
    <path
      d="m78.8885 36.1505c-1.9868 0-2.4408-1.8145-2.5886-2.4115l-.3427-1.5213c-2.9739-.5283-4.7897-2.4485-5.5418-5.8531l-4.309-18.73186c-.4928-.06177-.9891-.09177-1.4857-.0898-.8247-.01338-1.6467.09793-2.4382.33016v27.7333h-4.6653v-22.4508c0-2.9054 1.3194-4.92593 3.8341-5.87151v-1.49495c0-1.664 1.008-2.78126 2.5095-2.78126 1.2956 0 2.2482.82407 2.549 2.20282l.3827 1.69041c2.9027.52826 4.6439 2.39299 5.454 5.85039l4.3936 18.7346c.4945.0617.993.0916 1.4909.0897.8214.0064 1.6401-.0939 2.4361-.2984v-27.73334h4.6652v23.16654c0 2.3772-1.3911 4.2419-3.8345 5.1584v1.4448c0 1.7538-.9605 2.8367-2.5093 2.8367zm-2.0474-3.8008.2636 1.1965c.3141 1.2573.8313 1.7723 1.7811 1.7723 1.0556 0 1.6786-.7264 1.6786-1.9941v-1.1939c-.7993.1829-1.6167.2716-2.4361.2641-.4299.0011-.8592-.0201-1.2872-.0634zm-18.4927 2.4326h3.0029v-26.60546c-1.9949.8637-3.0029 2.53556-3.0029 4.97616zm8.6471-26.99372 4.2219 18.39112c.655 2.945 2.1113 4.5958 4.5281 5.1479l-4.3064-18.3912c-.7016-2.98728-2.082-4.60108-4.4436-5.14782zm14.4023-3.41253v26.60815c1.9422-.8241 3.0032-2.3217 3.0032-4.263v-22.34515zm-19.2153 2.62014c.7962-.20546 1.616-.30493 2.4382-.29581.4301-.00102.8599.02014 1.2878.06339v-.01321l-.3114-1.37082c-.1267-.58108-.5278-1.55042-1.7363-1.55042-1.2086 0-1.6783 1.00632-1.6783 1.94925z"/>
    <path
      d="m117.267 35.6148h-4.882l-2.406-9.5508h-13.532l-2.3615 9.5508h-4.8822l6.2966-23.1956c.7281-2.64925 2.3928-4.46114 4.8261-5.25352l.435-1.82248c.264-1.00367.792-2.32695 2.457-2.32695s2.195 1.32063 2.454 2.31903l.43 1.8304c2.428.79238 4.093 2.61219 4.824 5.25872zm-4.235-.832h3.145l-6.053-22.1444c-.599-2.1738-1.898-3.71627-3.776-4.49017l3.741 14.79377h-13.6946l3.6946-14.80697c-1.8821.79238-3.1801 2.32697-3.7791 4.49017l-6.011 22.1576h3.1449l2.3622-9.5508h14.811zm-15.5693-12.6781h11.5533l-3.6-14.28927c-1.442-.36715-2.953-.36715-4.396 0zm3.7863-15.19258c1.3-.26678 2.641-.26678 3.94 0v-.03434l-.321-1.35497c-.315-1.21234-.777-1.68777-1.647-1.68777-.871 0-1.333.47543-1.65 1.6957l-.322 1.34704z"/>
  </g>
</svg>
