<svg fill="none" height="40" viewBox="0 0 136 40" width="136" xmlns="http://www.w3.org/2000/svg"><g fill="#fff" fill-opacity=".8"><path clip-rule="evenodd" d="m20.5392 8h-20.5392v20.5392h3.08087v3.0808h20.53913v-20.5391h-3.0808zm0 3.0809h-17.45833v17.4583h17.45833z" fill-rule="evenodd"/><path d="m40.3759 27.5142c-1.5097 0-2.8324-.3306-3.9682-.992-1.1214-.6614-2.0056-1.5743-2.6526-2.7389-.6326-1.1789-.9489-2.5376-.9489-4.076s.3163-2.8898.9489-4.0544c.647-1.179 1.5312-2.0991 2.6526-2.7605 1.1358-.6613 2.4585-.992 3.9682-.992 1.4952 0 2.8107.3307 3.9466.992 1.1358.6614 2.02 1.5815 2.6526 2.7605.6326 1.1646.9489 2.516.9489 4.0544s-.3163 2.8971-.9489 4.076c-.6326 1.1646-1.5168 2.0775-2.6526 2.7389-1.1359.6614-2.4514.992-3.9466.992zm0-2.4801c1.4377 0 2.5807-.4744 3.429-1.4233.8626-.9489 1.2939-2.2501 1.2939-3.9035s-.4313-2.9545-1.2939-3.9034c-.8483-.949-1.9913-1.4234-3.429-1.4234-1.4378 0-2.588.4744-3.4506 1.4234-.8627.9489-1.294 2.25-1.294 3.9034s.4313 2.9546 1.294 3.9035c.8626.9489 2.0128 1.4233 3.4506 1.4233z"/><path d="m49.8869 32v-15.4413h2.4585l.3019 1.5312c.3451-.4745.798-.8914 1.3587-1.2509.5751-.3594 1.3155-.5391 2.2213-.5391 1.0064 0 1.905.2444 2.6958.7332.7907.4889 1.4161 1.1574 1.8762 2.0057.4601.8482.6901 1.8115.6901 2.8898s-.23 2.0416-.6901 2.8899c-.4601.8339-1.0855 1.4952-1.8762 1.9841-.7908.4744-1.6894.7116-2.6958.7116-.8051 0-1.5096-.1509-2.1135-.4528-.6038-.302-1.0927-.7261-1.4665-1.2724v6.211zm5.7581-6.9012c.877 0 1.6031-.2947 2.1782-.8842.5751-.5894.8626-1.3514.8626-2.286 0-.9345-.2875-1.7037-.8626-2.3075-.5751-.6039-1.3012-.9058-2.1782-.9058-.8914 0-1.6246.3019-2.1997.9058-.5608.5894-.8411 1.3514-.8411 2.286 0 .9345.2803 1.7037.8411 2.3075.5751.5895 1.3083.8842 2.1997.8842z"/><path d="m68.743 27.5142c-1.0783 0-2.0344-.23-2.8682-.6901-.8339-.46-1.4881-1.107-1.9626-1.9409-.4744-.8339-.7116-1.7972-.7116-2.8899 0-1.107.23-2.0919.6901-2.9545.4744-.8627 1.1214-1.5312 1.9409-2.0057.8339-.4888 1.8116-.7332 2.933-.7332 1.0496 0 1.9769.23 2.782.6901.8052.4601 1.4306 1.0927 1.8763 1.8978.4601.7908.6901 1.675.6901 2.6526 0 .1582-.0072.3235-.0216.4961 0 .1725-.0071.3522-.0215.5391h-8.1304c.0575.8339.345 1.4881.8626 1.9625.532.4745 1.1718.7117 1.9194.7117.5607 0 1.028-.1222 1.4018-.3666.3882-.2588.6757-.5895.8626-.9921h2.8036c-.2013.6758-.5391 1.294-1.0136 1.8547-.4601.5464-1.0352.9777-1.7253 1.294-.6757.3163-1.4449.4744-2.3076.4744zm.0216-8.9715c-.6757 0-1.2724.1941-1.79.5823-.5176.3738-.8482.9489-.992 1.7253h5.3268c-.0431-.7045-.3019-1.2652-.7764-1.6821-.4744-.417-1.0639-.6255-1.7684-.6255z"/><path d="m76.025 27.2555v-10.6968h2.437l.2156 1.8115c.3307-.6326.8052-1.1358 1.4234-1.5096.6326-.3738 1.373-.5607 2.2213-.5607 1.3227 0 2.3507.4169 3.0839 1.2508.7333.8339 1.0999 2.056 1.0999 3.6662v6.0386h-2.7604v-5.7798c0-.9201-.187-1.6246-.5608-2.1134-.3738-.4889-.9561-.7333-1.7468-.7333-.7764 0-1.4162.2732-1.9194.8195-.4888.5464-.7333 1.3084-.7333 2.286v5.521z"/><path d="m88.8007 27.2555v-15.0963h3.2781l4.8092 9.5753 4.745-9.5753h3.278v15.0963h-2.761v-10.4165l-4.2053 8.2598h-2.1781l-4.2054-8.2598v10.4165z"/><path d="m108.853 14.8981c-.503 0-.92-.151-1.251-.4529-.316-.3019-.474-.6829-.474-1.143s.158-.8339.474-1.1215c.331-.3019.748-.4528 1.251-.4528s.913.1509 1.229.4528c.331.2876.496.6614.496 1.1215s-.165.8411-.496 1.143c-.316.3019-.726.4529-1.229.4529zm-1.38 12.3574v-10.6968h2.76v10.6968z"/><path d="m112.705 27.2555v-10.6968h2.437l.216 1.8115c.33-.6326.805-1.1358 1.423-1.5096.632-.3738 1.373-.5607 2.221-.5607 1.323 0 2.351.4169 3.084 1.2508s1.1 2.056 1.1 3.6662v6.0386h-2.76v-5.7798c0-.9201-.187-1.6246-.561-2.1134-.374-.4889-.956-.7333-1.747-.7333-.776 0-1.416.2732-1.919.8195-.489.5464-.734 1.3084-.734 2.286v5.521z"/><path d="m129.104 27.5142c-.92 0-1.675-.1437-2.265-.4313-.589-.3019-1.028-.6973-1.315-1.1861-.288-.4888-.432-1.028-.432-1.6175 0-.992.389-1.7971 1.165-2.4154.776-.6182 1.941-.9273 3.494-.9273h2.717v-.2588c0-.7333-.208-1.2724-.625-1.6175-.417-.345-.935-.5176-1.553-.5176-.561 0-1.05.1366-1.467.4098-.417.2588-.675.647-.776 1.1646h-2.696c.072-.7764.331-1.4521.777-2.0272.46-.5751 1.049-1.0136 1.768-1.3156.719-.3163 1.524-.4744 2.415-.4744 1.524 0 2.725.381 3.602 1.143s1.316 1.8403 1.316 3.2349v6.5777h-2.351l-.259-1.7253c-.316.5751-.762 1.0495-1.337 1.4233-.561.3738-1.287.5607-2.178.5607zm.625-2.1566c.791 0 1.402-.2588 1.833-.7763.446-.5176.726-1.1574.841-1.9194h-2.35c-.734 0-1.258.1366-1.575.4097-.316.2588-.474.5823-.474.9705 0 .417.158.7404.474.9705.317.23.734.345 1.251.345z"/></g></svg>