<svg width="91" height="26" viewBox="0 0 91 26" fill="none" xmlns="http://www.w3.org/2000/svg">
<g id="Logo" clip-path="url(#clip0_1297_1985)">
<g id="Clip path group">
<mask id="mask0_1297_1985" style="mask-type:luminance" maskUnits="userSpaceOnUse" x="0" y="0" width="91" height="26">
<g id="a">
<path id="Vector" d="M0.00878906 0H90.2019V25.62H0.00878906V0Z" fill="white"/>
</g>
</mask>
<g mask="url(#mask0_1297_1985)">
<g id="Group">
<path id="Vector_2" d="M14.0299 25.5672C13.5583 25.581 13.0992 25.4136 12.7468 25.0994C12.3945 24.7853 12.1754 24.3481 12.1346 23.8775L11.9213 22.2041C9.88997 21.6246 8.70156 20.1199 8.39283 17.7308L6.56453 3.63164C6.17235 3.56847 5.77537 3.5399 5.37819 3.54624C4.79031 3.54143 4.20453 3.61737 3.63727 3.77194V25.1545H0.0498047V7.96673C0.0498047 5.63447 1.09598 3.98748 3.00144 3.30224V2.19408C3.00144 0.913077 3.77947 0.0529748 4.93534 0.0529748C6.09122 0.0529748 6.81643 0.772772 7.00332 2.08631L7.1455 3.11314C9.23175 3.69671 10.4506 5.37421 10.8122 8.09682L12.5024 21.6877C13.5121 21.8829 14.5499 21.8829 15.5596 21.6877L17.2497 8.09888C17.6032 5.37421 18.8363 3.69671 20.9165 3.10704L21.0586 2.08021C21.2455 0.772772 21.9809 0.046875 23.1266 0.046875C24.2723 0.046875 25.0605 0.906978 25.0605 2.18798V3.29614C26.966 3.98138 28.0121 5.62837 28.0121 7.96061V25.1484H24.4206V3.76991C23.8534 3.61533 23.2676 3.53939 22.6797 3.54421C22.2825 3.53786 21.8855 3.56643 21.4933 3.62961L19.6651 17.7308C19.3624 20.0772 18.1456 21.6185 16.1365 22.2041L15.9354 23.8796C15.904 24.3554 15.6863 24.7996 15.3294 25.1157C14.9727 25.4317 14.5057 25.594 14.0299 25.5672ZM12.5856 22.3668L12.7705 23.8084C12.7899 24.1245 12.933 24.4202 13.1688 24.6315C13.4045 24.8428 13.7139 24.9525 14.0299 24.9369C14.1872 24.9482 14.3451 24.9278 14.4943 24.8769C14.6435 24.826 14.781 24.7457 14.8987 24.6406C15.0163 24.5356 15.1117 24.408 15.1791 24.2654C15.2466 24.1228 15.2848 23.9681 15.2914 23.8104L15.4763 22.3668C14.5191 22.524 13.5428 22.524 12.5856 22.3668ZM25.0605 24.5241H27.3723V7.96673C27.3723 5.99031 26.5759 4.62594 25.0605 3.98951V24.5241ZM0.683604 24.5241H3.00144V3.98951C1.48805 4.62594 0.699856 5.99031 0.699856 7.96673L0.683604 24.5241ZM7.23695 3.80651L9.02864 17.6474C9.28462 19.6502 10.2292 20.9455 11.834 21.5107L10.1784 8.17617C9.87367 5.82561 8.90879 4.39007 7.23695 3.80651ZM20.825 3.80651C19.1532 4.39007 18.1842 5.82561 17.8836 8.17816L16.2279 21.5026C17.8348 20.9373 18.7774 19.6421 19.0333 17.6393L20.825 3.80651ZM3.64134 3.09891C4.21117 2.96021 4.79583 2.89192 5.38226 2.89557C5.74898 2.8917 6.11552 2.91344 6.47921 2.96064L6.36952 2.16154C6.22935 1.18148 5.74588 0.685342 4.93534 0.685342C4.12481 0.685342 3.64134 1.26078 3.64134 2.18594V3.09891ZM22.6797 2.89557C23.2661 2.89192 23.8508 2.96021 24.4206 3.09891V2.19408C24.4206 1.26891 23.925 0.693475 23.1266 0.693475C22.3283 0.693475 21.8326 1.18961 21.6925 2.16967L21.5827 2.96878C21.9465 2.92157 22.313 2.89983 22.6797 2.90371V2.89557Z" fill="#2D2D2D"/>
<path id="Vector_3" d="M37.9152 25.1536H34.3906V0.464844H37.9152V25.1536ZM35.0306 24.5131H37.2752V1.10535H35.0306V24.5131Z" fill="#2D2D2D"/>
<path id="Vector_4" d="M60.7805 25.567C59.2509 25.567 58.9015 24.1701 58.7877 23.7105L58.5236 22.5394C56.2342 22.1327 54.8366 20.6545 54.2577 18.0335L50.9404 3.6131C50.561 3.56554 50.179 3.54245 49.7966 3.54396C49.1618 3.53367 48.529 3.61936 47.9196 3.79814V25.1481H44.3281V7.86478C44.3281 5.62814 45.3438 4.07263 47.2798 3.34471V2.19383C47.2798 0.912834 48.0558 0.0527344 49.2117 0.0527344C50.2091 0.0527344 50.9424 0.687134 51.174 1.74854L51.4686 3.04987C53.7031 3.45654 55.0438 4.89207 55.6675 7.55372L59.0497 21.9761C59.4305 22.0236 59.8139 22.0467 60.1975 22.0452C60.8298 22.0502 61.4601 21.9729 62.0725 21.8155V0.465502H65.664V18.2999C65.664 20.1299 64.5935 21.5654 62.7124 22.271V23.3832C62.7124 24.7333 61.973 25.567 60.7805 25.567ZM59.2042 22.641L59.4073 23.5622C59.649 24.53 60.0472 24.9265 60.7785 24.9265C61.591 24.9265 62.0705 24.3673 62.0705 23.3914V22.4722C61.4555 22.6131 60.8263 22.6813 60.1954 22.6756C59.8644 22.6763 59.5335 22.6601 59.2042 22.6268V22.637V22.641ZM44.968 24.5137H47.2798V4.03197C45.744 4.69687 44.968 5.98397 44.968 7.86279V24.5137ZM51.6249 3.73307L54.8752 17.8912C55.379 20.1583 56.5003 21.4291 58.3611 21.8542L55.0458 7.69605C54.5055 5.39633 53.4431 4.15397 51.6249 3.73307ZM62.7124 1.106V21.5898C64.2075 20.9554 65.0241 19.8025 65.0241 18.308V1.106H62.7124ZM47.9196 3.12307C48.5326 2.96489 49.1637 2.88832 49.7966 2.89534C50.1277 2.89455 50.4586 2.91084 50.788 2.94414V2.93397L50.5483 1.87867C50.4508 1.43133 50.142 0.685101 49.2117 0.685101C48.2812 0.685101 47.9196 1.4598 47.9196 2.1857V3.12307Z" fill="#2D2D2D"/>
<path id="Vector_5" d="M90.3251 25.154H86.5668L84.7143 17.8015H74.297L72.4787 25.154H68.7207L73.5675 7.29727C74.1283 5.25783 75.41 3.86296 77.2831 3.25296L77.6183 1.84996C77.8211 1.07729 78.2275 0.0585938 79.5092 0.0585938C80.7916 0.0585938 81.1994 1.07526 81.3987 1.84386L81.7296 3.25296C83.5985 3.86296 84.8809 5.26393 85.4431 7.30133L90.3251 25.154ZM87.0643 24.5135H89.4861L84.8261 7.46601C84.3649 5.79259 83.365 4.60513 81.9189 4.00936L84.799 15.398H74.2564L77.1002 3.99919C75.652 4.60919 74.6521 5.79056 74.1916 7.45583L69.5637 24.5135H71.9855L73.8031 17.161H85.2054L87.0643 24.5135ZM75.0791 14.7535H83.9728L81.2016 3.75316C80.0914 3.47051 78.9278 3.47051 77.8176 3.75316L75.0791 14.7535ZM77.9941 3.03336V3.05776C78.9947 2.85239 80.0266 2.85239 81.0272 3.05776V3.03133L80.7788 1.98822C80.5376 1.05492 80.1817 0.688927 79.5113 0.688927C78.841 0.688927 78.4858 1.05493 78.2417 1.99433L77.9941 3.03133V3.03336Z" fill="#2D2D2D"/>
</g>
</g>
</g>
</g>
<defs>
<clipPath id="clip0_1297_1985">
<rect width="90.3817" height="25.62" fill="white" transform="translate(0.00878906)"/>
</clipPath>
</defs>
</svg>
