<svg fill="none" height="40" viewBox="0 0 346 40" width="346" xmlns="http://www.w3.org/2000/svg"><g fill="#fff"><path d="m18.16 36.1506c-.6127.0178-1.209-.1996-1.6668-.6077-.4577-.4082-.7422-.976-.7952-1.5873l-.2771-2.1737c-2.6387-.7528-4.1824-2.7073-4.5835-5.8108l-2.37489-18.31454c-.50945-.08207-1.02509-.11919-1.541-.11094-.76368-.00626-1.52458.09239-2.26145.29318v27.7756h-4.66006v-22.3266c0-3.0296 1.35897-5.16903 3.83413-6.05913v-1.43949c0-1.664 1.01065-2.78126 2.51211-2.78126 1.50145 0 2.44347.93501 2.68629 2.64127l.1847 1.33385c2.70997.75803 4.29327 2.93706 4.76297 6.47376l2.1955 17.6542c1.3116.2536 2.6596.2536 3.9713 0l2.1955-17.6516c.4591-3.5393 2.0608-5.71833 4.7629-6.48429l.1847-1.33384c.2428-1.69833 1.198-2.64127 2.6863-2.64127s2.5121 1.11726 2.5121 2.78126v1.43949c2.4752.8901 3.8341 3.02955 3.8341 6.05905v22.3267h-4.6653v-27.77034c-.7369-.20079-1.4978-.29943-2.2614-.29318-.5159-.00825-1.0316.02887-1.5411.11093l-2.3748 18.31719c-.3932 3.048-1.9739 5.0501-4.5836 5.8108l-.2612 2.1764c-.0407.6181-.3236 1.1952-.7871 1.6057s-1.0702.6213-1.6881.5866zm-1.8762-4.1574.2402 1.8726c.0251.4107.211.7948.5173 1.0693.3062.2744.7082.4169 1.1187.3967.2042.0146.4094-.0119.6032-.078s.3724-.1704.5252-.3069c.1528-.1364.2767-.3022.3644-.4874.0876-.1852.1372-.3862.1459-.591l.2401-1.8753c-1.2433.2042-2.5116.2042-3.755 0zm16.2047 2.8024h3.0029v-21.5078c0-2.5674-1.0344-4.33967-3.0029-5.16638zm-31.665207 0h3.010837v-26.67418c-1.96588.82671-2.989724 2.59898-2.989724 5.16638zm8.512677-26.9119 2.32743 17.9791c.3324 2.6016 1.5595 4.2841 3.6441 5.0184l-2.1506-17.3214c-.3958-3.0533-1.6492-4.91805-3.82093-5.6761zm17.65073 0c-2.1717.75805-3.4304 2.6228-3.821 5.6788l-2.1505 17.3081c2.0872-.7342 3.3116-2.4167 3.6441-5.0184zm-22.32136-.91916c.74021-.18016 1.49967-.26886 2.26143-.26412.47637-.00504.95247.0232 1.42491.08452l-.1425-1.03802c-.18204-1.2731-.8101-1.91756-1.86294-1.91756-1.05287 0-1.6809.74748-1.6809 1.94925zm24.73056-.26412c.7618-.00474 1.5212.08396 2.2614.26412v-1.17536c0-1.20178-.6439-1.94926-1.6809-1.94926-1.0371 0-1.6809.64447-1.8629 1.91756l-.1425 1.03802c.4724-.06131.9485-.08955 1.4249-.08452z"/><path d="m49.1865 35.6146h-4.5783v-32.07023h4.5783zm-3.7471-.832h2.9159v-30.40623h-2.9159z"/><path d="m78.8885 36.1505c-1.9868 0-2.4408-1.8145-2.5886-2.4115l-.3427-1.5213c-2.9739-.5283-4.7897-2.4485-5.5418-5.8531l-4.309-18.73186c-.4928-.06177-.9891-.09177-1.4857-.0898-.8247-.01338-1.6467.09793-2.4382.33016v27.7333h-4.6653v-22.4508c0-2.9054 1.3194-4.92593 3.8341-5.87151v-1.49495c0-1.664 1.008-2.78126 2.5095-2.78126 1.2956 0 2.2482.82407 2.549 2.20282l.3827 1.69041c2.9027.52826 4.6439 2.39299 5.454 5.85039l4.3936 18.7346c.4945.0617.993.0916 1.4909.0897.8214.0064 1.6401-.0939 2.4361-.2984v-27.73334h4.6652v23.16654c0 2.3772-1.3911 4.2419-3.8345 5.1584v1.4448c0 1.7538-.9605 2.8367-2.5093 2.8367zm-2.0474-3.8008.2636 1.1965c.3141 1.2573.8313 1.7723 1.7811 1.7723 1.0556 0 1.6786-.7264 1.6786-1.9941v-1.1939c-.7993.1829-1.6167.2716-2.4361.2641-.4299.0011-.8592-.0201-1.2872-.0634zm-18.4927 2.4326h3.0029v-26.60546c-1.9949.8637-3.0029 2.53556-3.0029 4.97616zm8.6471-26.99372 4.2219 18.39112c.655 2.945 2.1113 4.5958 4.5281 5.1479l-4.3064-18.3912c-.7016-2.98728-2.082-4.60108-4.4436-5.14782zm14.4023-3.41253v26.60815c1.9422-.8241 3.0032-2.3217 3.0032-4.263v-22.34515zm-19.2153 2.62014c.7962-.20546 1.616-.30493 2.4382-.29581.4301-.00102.8599.02014 1.2878.06339v-.01321l-.3114-1.37082c-.1267-.58108-.5278-1.55042-1.7363-1.55042-1.2086 0-1.6783 1.00632-1.6783 1.94925z"/><path d="m117.267 35.6148h-4.882l-2.406-9.5508h-13.532l-2.3615 9.5508h-4.8822l6.2966-23.1956c.7281-2.64925 2.3928-4.46114 4.8261-5.25352l.435-1.82248c.264-1.00367.792-2.32695 2.457-2.32695s2.195 1.32063 2.454 2.31903l.43 1.8304c2.428.79238 4.093 2.61219 4.824 5.25872zm-4.235-.832h3.145l-6.053-22.1444c-.599-2.1738-1.898-3.71627-3.776-4.49017l3.741 14.79377h-13.6946l3.6946-14.80697c-1.8821.79238-3.1801 2.32697-3.7791 4.49017l-6.011 22.1576h3.1449l2.3622-9.5508h14.811zm-15.5693-12.6781h11.5533l-3.6-14.28927c-1.442-.36715-2.953-.36715-4.396 0zm3.7863-15.19258c1.3-.26678 2.641-.26678 3.94 0v-.03434l-.321-1.35497c-.315-1.21234-.777-1.68777-1.647-1.68777-.871 0-1.333.47543-1.65 1.6957l-.322 1.34704z"/><path d="m145.529 20.2424-7.059 7.2727.471.4849 7.059-7.2728 7.059 7.2728.471-.4848-7.059-7.2728 7.529-7.7576-.471-.4848-7.529 7.7575-7.529-7.7575-.471.4849z" fill-opacity=".5"/><g fill-opacity=".8"><path clip-rule="evenodd" d="m207.962 6h-23.962v23.9623h3.594v3.5944h23.963v-23.96235h-3.595zm0 3.59435h-20.368v20.36795h20.368z" fill-rule="evenodd"/><path d="m231.105 28.7666c-1.761 0-3.304-.3858-4.629-1.1574-1.309-.7715-2.34-1.8367-3.095-3.1953-.738-1.3755-1.107-2.9606-1.107-4.7554 0-1.7947.369-3.3715 1.107-4.7301.755-1.3755 1.786-2.449 3.095-3.2206 1.325-.7716 2.868-1.1574 4.629-1.1574 1.745 0 3.279.3858 4.605 1.1574 1.325.7716 2.356 1.8451 3.094 3.2206.738 1.3586 1.107 2.9354 1.107 4.7301 0 1.7948-.369 3.3799-1.107 4.7554-.738 1.3586-1.769 2.4238-3.094 3.1953-1.326.7716-2.86 1.1574-4.605 1.1574zm0-2.8934c1.678 0 3.011-.5536 4.001-1.6606 1.006-1.1071 1.509-2.6251 1.509-4.5541 0-1.9289-.503-3.4469-1.509-4.554-.99-1.1071-2.323-1.6606-4.001-1.6606-1.677 0-3.019.5535-4.025 1.6606-1.007 1.1071-1.51 2.6251-1.51 4.554 0 1.929.503 3.447 1.51 4.5541 1.006 1.107 2.348 1.6606 4.025 1.6606z"/><path d="m242.201 34v-18.0149h2.869l.352 1.7864c.402-.5535.931-1.04 1.585-1.4593.671-.4193 1.535-.629 2.592-.629 1.174 0 2.222.2851 3.145.8554.922.5703 1.652 1.3503 2.189 2.34.536.9896.805 2.1134.805 3.3715 0 1.258-.269 2.3818-.805 3.3715-.537.9728-1.267 1.7444-2.189 2.3147-.923.5536-1.971.8303-3.145.8303-.94 0-1.762-.1761-2.466-.5283-.705-.3523-1.275-.8471-1.711-1.4845v7.2462zm6.718-8.0513c1.023 0 1.87-.3439 2.541-1.0316s1.007-1.5767 1.007-2.667-.336-1.9877-1.007-2.6922-1.518-1.0567-2.541-1.0567c-1.04 0-1.895.3522-2.566 1.0567-.654.6877-.981 1.5767-.981 2.667s.327 1.9877.981 2.6922c.671.6877 1.526 1.0316 2.566 1.0316z"/><path d="m264.2 28.7666c-1.258 0-2.373-.2684-3.346-.8051-.973-.5368-1.736-1.2916-2.29-2.2645-.553-.9728-.83-2.0967-.83-3.3715 0-1.2915.268-2.4405.805-3.4469.554-1.0065 1.308-1.7864 2.265-2.34.972-.5703 2.113-.8554 3.421-.8554 1.225 0 2.307.2684 3.246.8051.939.5368 1.669 1.2748 2.189 2.2141.537.9226.805 1.9542.805 3.0948 0 .1845-.008.3774-.025.5787 0 .2012-.008.4109-.025.629h-9.486c.067.9728.403 1.7361 1.007 2.2896.62.5535 1.367.8303 2.239.8303.654 0 1.199-.1426 1.635-.4278.453-.3019.789-.6877 1.007-1.1573h3.271c-.235.7883-.629 1.5096-1.183 2.1638-.537.6374-1.207 1.1406-2.013 1.5096-.788.369-1.685.5535-2.692.5535zm.025-10.4667c-.788 0-1.484.2264-2.088.6793-.604.4361-.99 1.1071-1.157 2.0128h6.214c-.05-.8219-.352-1.476-.905-1.9625-.554-.4864-1.242-.7296-2.064-.7296z"/><path d="m272.696 28.4647v-12.4796h2.843l.252 2.1135c.385-.7381.939-1.3251 1.66-1.7612.738-.4362 1.602-.6542 2.592-.6542 1.543 0 2.742.4864 3.598 1.4593.855.9729 1.283 2.3986 1.283 4.2773v7.0449h-3.221v-6.743c0-1.0735-.218-1.8954-.654-2.4657s-1.115-.8555-2.038-.8555c-.906 0-1.652.3187-2.239.9561-.57.6374-.856 1.5264-.856 2.667v6.4411z"/><path d="m287.601 28.4647v-17.6123h3.824l5.611 11.1712 5.535-11.1712h3.825v17.6123h-3.221v-12.1525l-4.906 9.6365h-2.541l-4.907-9.6365v12.1525z"/><path d="m310.995 14.0478c-.587 0-1.073-.1762-1.459-.5284-.369-.3523-.553-.7968-.553-1.3335 0-.5368.184-.9729.553-1.3084.386-.3522.872-.5283 1.459-.5283s1.065.1761 1.434.5283c.386.3355.579.7716.579 1.3084 0 .5367-.193.9812-.579 1.3335-.369.3522-.847.5284-1.434.5284zm-1.61 14.4169v-12.4796h3.221v12.4796z"/><path d="m315.489 28.4647v-12.4796h2.843l.252 2.1135c.386-.7381.939-1.3251 1.66-1.7612.738-.4362 1.602-.6542 2.592-.6542 1.543 0 2.742.4864 3.598 1.4593.855.9729 1.283 2.3986 1.283 4.2773v7.0449h-3.221v-6.743c0-1.0735-.218-1.8954-.654-2.4657s-1.115-.8555-2.038-.8555c-.905 0-1.652.3187-2.239.9561-.57.6374-.855 1.5264-.855 2.667v6.4411z"/><path d="m334.621 28.7666c-1.073 0-1.954-.1677-2.642-.5032-.688-.3522-1.199-.8135-1.535-1.3838-.335-.5703-.503-1.1993-.503-1.887 0-1.1574.453-2.0968 1.359-2.818.906-.7213 2.264-1.0819 4.076-1.0819h3.17v-.3019c0-.8555-.243-1.4845-.73-1.8871-.486-.4025-1.09-.6038-1.811-.6038-.654 0-1.225.1593-1.711.478-.487.3019-.788.7548-.906 1.3587h-3.145c.084-.9058.386-1.6942.906-2.3651.537-.6709 1.224-1.1825 2.063-1.5348.839-.369 1.778-.5535 2.818-.5535 1.778 0 3.179.4445 4.202 1.3335s1.535 2.147 1.535 3.7741v7.6739h-2.743l-.302-2.0128c-.369.6709-.889 1.2244-1.56 1.6606-.654.4361-1.501.6541-2.541.6541zm.73-2.516c.922 0 1.635-.3019 2.138-.9058.52-.6039.847-1.3503.982-2.2393h-2.743c-.855 0-1.468.1594-1.837.4781-.369.3019-.553.6793-.553 1.1322 0 .4864.184.8638.553 1.1322s.856.4026 1.46.4026z"/></g></g></svg>