<svg width="29" height="32" viewBox="0 0 29 32" fill="none" xmlns="http://www.w3.org/2000/svg">
<g clip-path="url(#clip0_306_5853)">
<path d="M14.4972 18.0865C19.1588 18.0865 22.9378 14.5982 22.9378 10.2952C22.9378 5.99219 19.1588 2.50391 14.4972 2.50391C9.83562 2.50391 6.05664 5.99219 6.05664 10.2952C6.05664 14.5982 9.83562 18.0865 14.4972 18.0865Z" fill="#A4C639" stroke="#0D0D0D" stroke-width="1.33565"/>
<path d="M20.8972 8.34766H8.09722C6.97024 8.34766 6.05664 9.26125 6.05664 10.3882V23.1882C6.05664 24.3152 6.97024 25.2288 8.09722 25.2288H20.8972C22.0242 25.2288 22.9378 24.3152 22.9378 23.1882V10.3882C22.9378 9.26125 22.0242 8.34766 20.8972 8.34766Z" fill="#A4C639" stroke="#0D0D0D" stroke-width="1.33565"/>
<path d="M8.73182 1.25642C8.57039 0.965197 8.67561 0.59825 8.96683 0.436822C9.25806 0.275394 9.625 0.380615 9.78643 0.671838L13.0691 6.5939C13.2305 6.88512 13.1253 7.25207 12.8341 7.4135C12.5428 7.57493 12.1759 7.46971 12.0145 7.17848L8.73182 1.25642Z" fill="#A4C639" stroke="#0D0D0D" stroke-width="0.667826"/>
<path d="M23.3095 12.521C23.3095 11.2916 24.3062 10.2949 25.5356 10.2949C26.7651 10.2949 27.7617 11.2916 27.7617 12.521V20.4051C27.7617 21.6345 26.7651 22.6312 25.5356 22.6312C24.3062 22.6312 23.3095 21.6345 23.3095 20.4051V12.521Z" fill="#A4C639" stroke="#0D0D0D" stroke-width="0.667826"/>
<path d="M15.4248 21.5171C15.4248 20.2877 16.4214 19.291 17.6509 19.291C18.8803 19.291 19.877 20.2877 19.877 21.5171V29.4012C19.877 30.6306 18.8803 31.6272 17.6509 31.6272C16.4214 31.6272 15.4248 30.6306 15.4248 29.4012V21.5171Z" fill="#A4C639" stroke="#0D0D0D" stroke-width="0.667826"/>
<path d="M20.2643 1.25642C20.4257 0.965197 20.3205 0.59825 20.0293 0.436822C19.738 0.275394 19.3711 0.380615 19.2097 0.671838L15.927 6.5939C15.7656 6.88512 15.8708 7.25207 16.162 7.4135C16.4532 7.57493 16.8202 7.46971 16.9816 7.17848L20.2643 1.25642Z" fill="#A4C639" stroke="#0D0D0D" stroke-width="0.667826"/>
<path d="M5.68655 12.521C5.68655 11.2916 4.6899 10.2949 3.46046 10.2949C2.23103 10.2949 1.23438 11.2916 1.23438 12.521V20.4051C1.23438 21.6345 2.23103 22.6312 3.46046 22.6312C4.6899 22.6312 5.68655 21.6345 5.68655 20.4051V12.521Z" fill="#A4C639" stroke="#0D0D0D" stroke-width="0.667826"/>
<path d="M13.5713 21.5171C13.5713 20.2877 12.5747 19.291 11.3452 19.291C10.1158 19.291 9.11914 20.2877 9.11914 21.5171V29.4012C9.11914 30.6306 10.1158 31.6272 11.3452 31.6272C12.5747 31.6272 13.5713 30.6306 13.5713 29.4012V21.5171Z" fill="#A4C639" stroke="#0D0D0D" stroke-width="0.667826"/>
<path d="M14.4972 18.0865C19.1588 18.0865 22.9378 14.5982 22.9378 10.2952C22.9378 5.99219 19.1588 2.50391 14.4972 2.50391C9.83562 2.50391 6.05664 5.99219 6.05664 10.2952C6.05664 14.5982 9.83562 18.0865 14.4972 18.0865Z" fill="#A4C639"/>
<path d="M20.8972 8.34766H8.09722C6.97024 8.34766 6.05664 9.26125 6.05664 10.3882V23.1882C6.05664 24.3152 6.97024 25.2288 8.09722 25.2288H20.8972C22.0242 25.2288 22.9378 24.3152 22.9378 23.1882V10.3882C22.9378 9.26125 22.0242 8.34766 20.8972 8.34766Z" fill="#A4C639"/>
<path d="M5.68555 10.6191H23.3087H5.68555Z" fill="#0D0D0D"/>
<path d="M5.68555 10.6191H23.3087" stroke="#0D0D0D" stroke-width="0.667826"/>
<path d="M10.6015 6.86312C10.8064 6.86312 10.9725 6.69701 10.9725 6.49211C10.9725 6.2872 10.8064 6.12109 10.6015 6.12109C10.3966 6.12109 10.2305 6.2872 10.2305 6.49211C10.2305 6.69701 10.3966 6.86312 10.6015 6.86312Z" fill="#0D0D0D" stroke="#0D0D0D" stroke-width="0.667826"/>
<path d="M18.3925 6.86312C18.5974 6.86312 18.7635 6.69701 18.7635 6.49211C18.7635 6.2872 18.5974 6.12109 18.3925 6.12109C18.1876 6.12109 18.0215 6.2872 18.0215 6.49211C18.0215 6.69701 18.1876 6.86312 18.3925 6.86312Z" fill="#0D0D0D" stroke="#0D0D0D" stroke-width="0.667826"/>
</g>
<defs>
<clipPath id="clip0_306_5853">
<rect width="27.2696" height="32" fill="white" transform="translate(0.865234)"/>
</clipPath>
</defs>
</svg>
