<svg width="49" height="49" viewBox="0 0 49 49" fill="none" xmlns="http://www.w3.org/2000/svg">
<g clip-path="url(#clip0_306_6120)">
<path d="M24.5 36.4941C31.1274 36.4941 36.5 31.1216 36.5 24.4941C36.5 17.8667 31.1274 12.4941 24.5 12.4941C17.8726 12.4941 12.5 17.8667 12.5 24.4941C12.5 31.1216 17.8726 36.4941 24.5 36.4941Z" fill="white"/>
<path d="M24.4995 12.5H45.2807C43.1749 8.85143 40.1456 5.82154 36.4974 3.71505C32.8491 1.60855 28.7106 0.499706 24.4979 0.5C20.2852 0.500294 16.1468 1.60972 12.4989 3.71672C8.85099 5.82373 5.82209 8.85403 3.7168 12.5029L14.1074 30.5L14.1167 30.4976C13.0597 28.6749 12.5019 26.6057 12.4995 24.4987C12.4972 22.3917 13.0503 20.3212 14.1032 18.4961C15.1561 16.671 16.6715 15.1558 18.4968 14.1031C20.322 13.0504 22.3925 12.4974 24.4995 12.5Z" fill="url(#paint0_linear_306_6120)"/>
<path d="M24.5 34C29.7467 34 34 29.7467 34 24.5C34 19.2533 29.7467 15 24.5 15C19.2533 15 15 19.2533 15 24.5C15 29.7467 19.2533 34 24.5 34Z" fill="#1A73E8"/>
<path d="M34.891 30.5037L24.5004 48.5008C28.7131 48.5014 32.8517 47.3928 36.5 45.2866C40.1484 43.1804 43.1779 40.1507 45.284 36.5023C47.3901 32.8538 48.4984 28.7152 48.4977 24.5025C48.4969 20.2898 47.3871 16.1516 45.2797 12.5039H24.4986L24.4961 12.5132C26.6031 12.5091 28.674 13.0606 30.4999 14.1121C32.3259 15.1635 33.8424 16.6778 34.8965 18.5022C35.9506 20.3266 36.5052 22.3966 36.5042 24.5037C36.5032 26.6107 35.9468 28.6803 34.891 30.5037Z" fill="url(#paint1_linear_306_6120)"/>
<path d="M14.1089 30.503L3.71827 12.5059C1.6114 16.1539 0.50211 20.2923 0.501953 24.505C0.501796 28.7177 1.61077 32.8562 3.71738 36.5043C5.82398 40.1525 8.85396 43.1817 12.5026 45.2874C16.1513 47.3931 20.2901 48.5011 24.5028 48.4999L34.8934 30.5028L34.8867 30.496C33.8366 32.3227 32.3236 33.8404 30.5 34.8959C28.6765 35.9515 26.6068 36.5077 24.4998 36.5084C22.3928 36.5091 20.3228 35.9543 18.4985 34.9C16.6742 33.8456 15.1601 32.329 14.1089 30.503Z" fill="url(#paint2_linear_306_6120)"/>
</g>
<defs>
<linearGradient id="paint0_linear_306_6120" x1="3.7168" y1="15.5" x2="45.2807" y2="15.5" gradientUnits="userSpaceOnUse">
<stop stop-color="#D93025"/>
<stop offset="1" stop-color="#EA4335"/>
</linearGradient>
<linearGradient id="paint1_linear_306_6120" x1="21.2216" y1="48.1799" x2="42.0036" y2="12.1845" gradientUnits="userSpaceOnUse">
<stop stop-color="#FCC934"/>
<stop offset="1" stop-color="#FBBC04"/>
</linearGradient>
<linearGradient id="paint2_linear_306_6120" x1="27.0984" y1="47.0014" x2="6.31637" y2="11.0059" gradientUnits="userSpaceOnUse">
<stop stop-color="#1E8E3E"/>
<stop offset="1" stop-color="#34A853"/>
</linearGradient>
<clipPath id="clip0_306_6120">
<rect width="48" height="48" fill="white" transform="translate(0.5 0.5)"/>
</clipPath>
</defs>
</svg>
