<svg fill="none" height="39" viewBox="0 0 358 39" width="358" xmlns="http://www.w3.org/2000/svg"><g fill="#fff"><path d="m17.4616 31.8756c-.5892.0171-1.1626-.192-1.6027-.5843-.4401-.3925-.7137-.9385-.7646-1.5262l-.2665-2.0902c-2.5372-.7238-4.0215-2.6032-4.4072-5.5873l-2.28357-17.61014c-.48986-.07891-.98566-.1146-1.48173-.10667-.7343-.00601-1.46594.08884-2.17447.28191v26.7073h-4.48083v-21.46791c0-2.91302 1.3067-4.97019 3.68667-5.82606v-1.38413c0-1.59999.97177-2.67428119 2.41549-2.67428119 1.4437 0 2.34949.89904419 2.58297 2.53968119l.1776 1.28254c2.60577.72889 4.12817 2.82411 4.57977 6.22476l2.111 16.9752c1.2612.2439 2.5574.2439 3.8186 0l2.111-16.9727c.4415-3.40315 1.9817-5.49837 4.5798-6.23488l.1776-1.28254c.2335-1.63301 1.152-2.53968 2.583-2.53968s2.4155 1.07429 2.4155 2.67429v1.38412c2.3799.85588 3.6866 2.91304 3.6866 5.82606v21.46793h-4.4858v-26.70224c-.7086-.19307-1.4402-.28792-2.1745-.28191-.4961-.00793-.992.02776-1.4818.10667l-2.2835 17.61268c-.3781 2.9308-1.8979 4.8559-4.4073 5.5873l-.2512 2.0927c-.0391.5944-.3111 1.1493-.7568 1.5439-.4457.3948-1.029.5975-1.6231.5641zm-1.8041-3.9975.231 1.8006c.0241.3949.2029.7642.4974 1.0281.2944.2639.6809.4009 1.0757.3814.1963.0141.3936-.0113.5799-.0749.1864-.0635.3581-.1639.5051-.2951.1469-.1312.266-.2906.3503-.4687s.132-.3713.1403-.5682l.2309-1.8032c-1.1955.1964-2.415.1964-3.6106 0zm15.5815 2.6946h2.8874v-20.68061c0-2.46861-.9946-4.17273-2.8874-4.96765zm-30.447371 0h2.895041v-25.64826c-1.89027.79492-2.87474 2.49904-2.87474 4.96765zm8.185271-25.87683 2.2379 17.28763c.3197 2.5015 1.4995 4.1193 3.5039 4.8254l-2.0678-16.6552c-.3806-2.93591-1.5858-4.72894-3.674-5.45783zm16.9718 0c-2.0882.72889-3.2984 2.52192-3.6739 5.46033l-2.0679 16.6425c2.007-.706 3.1843-2.3238 3.504-4.8254zm-21.46279-.88381c.71173-.17323 1.44199-.25852 2.17445-.25397.45805-.00483.91584.02232 1.37011.08128l-.13702-.9981c-.17504-1.22413-.77895-1.84381-1.79129-1.84381-1.01238 0-1.61625.71873-1.61625 1.87428zm23.77939-.25397c.7325-.00455 1.4627.08074 2.1745.25397v-1.13016c0-1.15555-.6192-1.874283-1.6163-1.874283-.9972 0-1.6163.619683-1.7913 1.843803l-.137.9981c.4542-.05895.912-.08611 1.3701-.08127z"/><path d="m47.2948 31.3602h-4.4022v-30.836762h4.4022zm-3.603-.8h2.8037v-29.23676h-2.8037z"/><path d="m75.8543 31.8755c-1.9104 0-2.3468-1.7448-2.4889-2.3187l-.3296-1.4629c-2.8595-.5079-4.6055-2.3543-5.3287-5.6279l-4.1432-18.01144c-.4738-.0594-.951-.08824-1.4285-.08635-.7931-.01286-1.5834.09417-2.3445.31746v26.66663h-4.4859v-21.58725c0-2.79366 1.2686-4.73652 3.6867-5.64573v-1.43746c0-1.6.9692-2.67428215 2.4129-2.67428215 1.2458 0 2.1618.79237815 2.451 2.11809215l.368 1.6254c2.7911.50794 4.4653 2.30095 5.2442 5.62537l4.2246 18.01406c.4755.0593.9549.0881 1.4336.0863.7898.0061 1.577-.0904 2.3424-.287v-26.666666h4.4858v22.275566c0 2.2857-1.3376 4.0787-3.687 4.96v1.3892c0 1.6863-.9236 2.7276-2.4129 2.7276zm-1.9686-3.6546.2534 1.1505c.3021 1.2089.7994 1.7041 1.7127 1.7041 1.015 0 1.6141-.6984 1.6141-1.9174v-1.148c-.7687.1759-1.5546.2611-2.3424.254-.4135.001-.8263-.0194-1.2378-.061zm-17.7814 2.339h2.8874v-25.58216c-1.9182.83047-2.8874 2.43806-2.8874 4.78475zm8.3145-25.9555 4.0595 17.6838c.6298 2.8317 2.0301 4.4191 4.354 4.9499l-4.1408-17.68387c-.6746-2.87238-2.0019-4.42411-4.2727-4.94983zm13.8484-3.28127v25.58477c1.8675-.7924 2.8876-2.2324 2.8876-4.0991v-21.48567zm-18.4763 2.51937c.7656-.19756 1.5539-.29321 2.3445-.28444.4135-.00098.8267.01937 1.2382.06095v-.0127l-.2994-1.3181c-.1218-.55872-.5075-1.490788-1.6696-1.490788-1.162 0-1.6137.967618-1.6137 1.874288z"/><path d="m112.757 31.3604h-4.694l-2.314-9.1835h-13.0114l-2.2707 9.1835h-4.6944l6.0544-22.3035c.7001-2.54733 2.3008-4.28953 4.6406-5.05143l.4186-1.75239c.2534-.96507.7609-2.237455 2.3622-2.237455 1.6007 0 2.1107 1.269845 2.3597 2.229845l.413 1.76c2.335.7619 3.936 2.51171 4.639 5.05648zm-4.073-.8h3.024l-5.82-21.29269c-.576-2.09017-1.824-3.57335-3.63-4.31748l3.597 14.22477h-13.168l3.552-14.23747c-1.8093.7619-3.0573 2.23745-3.6333 4.31745l-5.7798 21.30542h3.024l2.2714-9.1835h14.2417zm-14.9698-12.1905h11.1088l-3.461-13.73967c-1.3873-.35303-2.8401-.35303-4.2276 0zm3.641-14.60824c1.2499-.25653 2.5389-.25653 3.7878 0v-.03302l-.309-1.30286c-.302-1.16571-.746-1.622854-1.5831-1.622854-.8372 0-1.2813.457144-1.586 1.630474l-.3097 1.29524z"/><path d="m144.543 16.2951-10.607 10.6066.707.7071 10.607-10.6066 10.606 10.6066.708-.7071-10.607-10.6066 11.314-11.31369-.708-.70711-11.313 11.3136-11.314-11.31357-.707.7071z" fill-opacity=".5"/><path d="m192.391 30.1416c-1.974 0-3.774-.4-5.4-1.2-1.627-.8267-3.027-1.92-4.2-3.28-1.174-1.36-2.08-2.8934-2.72-4.6-.64-1.7334-.96-3.5067-.96-5.32 0-1.8934.333-3.6934 1-5.4.666-1.73337 1.6-3.2667 2.8-4.60004 1.226-1.36 2.64-2.42667 4.24-3.2 1.626-.8 3.373-1.2 5.24-1.2 1.973 0 3.773.41333 5.4 1.24 1.626.82667 3.013 1.93333 4.16 3.32 1.173 1.38667 2.08 2.93334 2.72 4.64004.64 1.7066.96 3.44.96 5.2 0 1.92-.334 3.7466-1 5.48-.667 1.7066-1.6 3.24-2.8 4.6-1.2 1.3333-2.614 2.3866-4.24 3.16-1.6.7733-3.334 1.16-5.2 1.16zm-11.88-14.4c0 1.7066.293 3.3466.88 4.92.586 1.5466 1.4 2.9333 2.44 4.16 1.066 1.2266 2.32 2.2 3.76 2.92 1.466.72 3.066 1.08 4.8 1.08 1.76 0 3.373-.3734 4.84-1.12 1.466-.7467 2.72-1.7467 3.76-3 1.04-1.2534 1.84-2.6534 2.4-4.2.56-1.5467.84-3.1334.84-4.76 0-1.7067-.294-3.3334-.88-4.88-.587-1.57337-1.414-2.97337-2.48-4.20004-1.067-1.22666-2.334-2.2-3.8-2.92-1.44-.72-3-1.08-4.68-1.08-1.787 0-3.414.37333-4.88 1.12-1.44.74667-2.68 1.74667-3.72 3-1.04 1.25334-1.854 2.65333-2.44 4.20004-.56 1.5466-.84 3.1333-.84 4.76z"/><path d="m219.587 30.3416c-1.813 0-3.44-.4934-4.88-1.48-1.413-.9867-2.56-2.1734-3.44-3.56v13.16h-1.36v-29.32004h1.28v4.32004c.88-1.36 2.04-2.4667 3.48-3.32 1.467-.88004 2.987-1.32004 4.56-1.32004 1.44 0 2.76.30667 3.96.92 1.227.61334 2.28 1.44004 3.16 2.48004.907 1.0133 1.6 2.16 2.08 3.44.507 1.28.76 2.5866.76 3.92 0 1.92-.4 3.6933-1.2 5.32-.8 1.6266-1.92 2.9466-3.36 3.96-1.413.9866-3.093 1.48-5.04 1.48zm-.2-1.28c1.28 0 2.44-.2667 3.48-.8 1.04-.5334 1.92-1.2534 2.64-2.16.747-.9067 1.32-1.92 1.72-3.04s.6-2.28.6-3.48c0-1.2534-.227-2.44-.68-3.56-.453-1.1467-1.093-2.16-1.92-3.04-.8-.88-1.733-1.5734-2.8-2.08-1.04-.5334-2.173-.8-3.4-.8-.773 0-1.6.16-2.48.48-.853.32-1.68.7733-2.48 1.36-.773.56-1.413 1.2-1.92 1.92s-.8 1.4666-.88 2.24v7.16c.507 1.0933 1.16 2.08 1.96 2.96.827.8533 1.76 1.5466 2.8 2.08 1.067.5066 2.187.76 3.36.76z"/><path d="m242.084 30.3416c-1.387 0-2.707-.28-3.96-.84-1.227-.5867-2.307-1.3734-3.24-2.36-.907-1.0134-1.627-2.1734-2.16-3.48-.507-1.3334-.76-2.7467-.76-4.24 0-1.9467.44-3.72 1.32-5.32s2.066-2.88 3.56-3.84c1.52-.96004 3.213-1.44004 5.08-1.44004 1.92 0 3.626.49334 5.12 1.48004 1.52.96 2.733 2.2533 3.64 3.88.906 1.6 1.36 3.3866 1.36 5.36v.32c0 .1066-.014.2133-.04.32h-18.64c.133 1.68.6 3.2 1.4 4.56.826 1.36 1.88 2.44 3.16 3.24 1.306.8 2.72 1.2 4.24 1.2s2.946-.3867 4.28-1.16c1.333-.8 2.28-1.8134 2.84-3.04l1.24.32c-.4.96-1.027 1.8266-1.88 2.6-.854.7733-1.854 1.3733-3 1.8-1.12.4266-2.307.64-3.56.64zm-8.76-11.32h17.36c-.107-1.76-.56-3.3067-1.36-4.64-.774-1.36-1.8-2.4267-3.08-3.2-1.28-.7734-2.707-1.16-4.28-1.16-1.547 0-2.96.3866-4.24 1.16-1.254.7733-2.28 1.84-3.08 3.2-.774 1.36-1.214 2.9066-1.32 4.64z"/><path d="m272.408 29.9416h-1.36v-11.6c0-2.8267-.413-4.9067-1.24-6.24-.8-1.3334-2.08-2-3.84-2-1.253 0-2.48.3066-3.68.92-1.2.5866-2.253 1.4-3.16 2.44-.88 1.0133-1.52 2.1733-1.92 3.48v13h-1.36v-20.80004h1.32v5.20004c.56-1.0934 1.307-2.0534 2.24-2.88.96-.8267 2.027-1.46671 3.2-1.92004 1.173-.48 2.373-.72 3.6-.72 1.093 0 2.027.2 2.8.6.8.4 1.44.98664 1.92 1.76004.507.7733.88 1.7466 1.12 2.92.24 1.1733.36 2.5333.36 4.08z"/><path d="m304.7 29.9416v-25.60004l-11.92 20.12004h-.96l-11.92-20.12004v25.60004h-1.4v-28.40004h1.28l12.52 21.12004 12.52-21.12004h1.28v28.40004z"/><path d="m312.414 29.9416v-20.80004h1.36v20.80004zm0-25.84004v-3.359998h1.36v3.359998z"/><path d="m336.104 29.9416h-1.36v-11.6c0-2.8267-.413-4.9067-1.24-6.24-.8-1.3334-2.08-2-3.84-2-1.253 0-2.48.3066-3.68.92-1.2.5866-2.253 1.4-3.16 2.44-.88 1.0133-1.52 2.1733-1.92 3.48v13h-1.36v-20.80004h1.32v5.20004c.56-1.0934 1.307-2.0534 2.24-2.88.96-.8267 2.027-1.46671 3.2-1.92004 1.174-.48 2.374-.72 3.6-.72 1.094 0 2.027.2 2.8.6.8.4 1.44.98664 1.92 1.76004.507.7733.88 1.7466 1.12 2.92.24 1.1733.36 2.5333.36 4.08z"/><path d="m339.837 23.9816c0-1.2267.373-2.28 1.12-3.16.747-.9067 1.76-1.6134 3.04-2.12 1.28-.5334 2.773-.8 4.48-.8 1.12 0 2.28.1066 3.48.32 1.2.1866 2.28.4533 3.24.8v-2.2c0-2.0267-.6-3.6534-1.8-4.88-1.173-1.2534-2.76-1.88-4.76-1.88-1.013 0-2.093.2133-3.24.64-1.12.4266-2.267 1.0533-3.44 1.88l-.68-1c1.36-.9334 2.653-1.6267 3.88-2.08004 1.227-.45333 2.413-.68 3.56-.68 2.4 0 4.307.73334 5.72 2.20004 1.413 1.44 2.12 3.4 2.12 5.88v10.96c0 .2933.053.52.16.68.133.1333.32.2.56.2v1.2c-.187 0-.347 0-.48 0-.107 0-.2-.0134-.28-.04-.373-.08-.667-.28-.88-.6s-.333-.6667-.36-1.04v-1.8c-.96 1.2266-2.2 2.1866-3.72 2.88-1.52.6666-3.147 1-4.88 1-1.28 0-2.44-.28-3.48-.84s-1.867-1.32-2.48-2.28c-.587-.9867-.88-2.0667-.88-3.24zm14.64 1.8c.24-.32.413-.6267.52-.92.133-.32.2-.6.2-.84v-3.8c-1.04-.4-2.12-.6934-3.24-.88-1.093-.2134-2.227-.32-3.4-.32-2.213 0-4 .4533-5.36 1.36-1.36.88-2.04 2.0533-2.04 3.52 0 .96.24 1.84.72 2.64.507.8 1.187 1.44 2.04 1.92.88.48 1.853.72 2.92.72 1.653 0 3.16-.3067 4.52-.92 1.387-.64 2.427-1.4667 3.12-2.48z"/></g></svg>