<svg width="49" height="49" viewBox="0 0 49 49" fill="none" xmlns="http://www.w3.org/2000/svg">
<g clip-path="url(#clip0_307_6175)">
<path d="M43.8309 36.2188C43.1872 36.5532 42.5234 36.8476 41.8434 37.1C39.69 37.9015 37.4098 38.308 35.1121 38.3C26.2434 38.3 18.5184 32.2063 18.5184 24.3688C18.5299 23.3193 18.8209 22.2918 19.3613 21.3921C19.9018 20.4925 20.6722 19.753 21.5934 19.25C13.5684 19.5875 11.5059 27.95 11.5059 32.8438C11.5059 46.7188 24.2746 48.1062 27.0309 48.1062C28.5121 48.1062 30.7434 47.675 32.0934 47.2438L32.3371 47.1687C37.5035 45.3833 41.9078 41.8916 44.8246 37.2688C44.9094 37.1283 44.9458 36.9639 44.9282 36.8008C44.9106 36.6377 44.84 36.4848 44.7272 36.3657C44.6144 36.2465 44.4657 36.1676 44.3038 36.1411C44.1419 36.1145 43.9758 36.1418 43.8309 36.2188Z" fill="url(#paint0_linear_307_6175)"/>
<path opacity="0.35" d="M43.8309 36.2188C43.1872 36.5532 42.5234 36.8476 41.8434 37.1C39.69 37.9015 37.4098 38.308 35.1121 38.3C26.2434 38.3 18.5184 32.2063 18.5184 24.3688C18.5299 23.3193 18.8209 22.2918 19.3613 21.3921C19.9018 20.4925 20.6722 19.753 21.5934 19.25C13.5684 19.5875 11.5059 27.95 11.5059 32.8438C11.5059 46.7188 24.2746 48.1062 27.0309 48.1062C28.5121 48.1062 30.7434 47.675 32.0934 47.2438L32.3371 47.1687C37.5035 45.3833 41.9078 41.8916 44.8246 37.2688C44.9094 37.1283 44.9458 36.9639 44.9282 36.8008C44.9106 36.6377 44.84 36.4848 44.7272 36.3657C44.6144 36.2465 44.4657 36.1676 44.3038 36.1411C44.1419 36.1145 43.9758 36.1418 43.8309 36.2188Z" fill="url(#paint1_radial_307_6175)"/>
<path d="M20.3186 45.7445C18.6496 44.7079 17.2029 43.3505 16.0623 41.7508C14.7598 39.968 13.8633 37.9218 13.4355 35.7557C13.0078 33.5897 13.0593 31.3563 13.5864 29.2122C14.1135 27.0682 15.1034 25.0655 16.4866 23.3446C17.8699 21.6238 19.613 20.2265 21.5936 19.2508C22.1936 18.9695 23.1873 18.482 24.5186 18.5008C25.4553 18.508 26.3777 18.7318 27.2137 19.1547C28.0496 19.5775 28.7764 20.188 29.3373 20.9383C30.0917 21.9528 30.5053 23.1803 30.5186 24.4445C30.5186 24.407 35.1123 9.51953 15.5186 9.51953C7.28732 9.51953 0.518574 17.3195 0.518574 24.182C0.485834 27.8071 1.26084 31.3939 2.78732 34.682C5.28721 40.0052 9.65458 44.2252 15.0604 46.541C20.4662 48.8568 26.5341 49.1072 32.1123 47.2445C30.158 47.8618 28.093 48.0473 26.06 47.7883C24.027 47.5293 22.0745 46.832 20.3373 45.7445H20.3186Z" fill="url(#paint2_linear_307_6175)"/>
<path opacity="0.41" d="M20.3186 45.7445C18.6496 44.7079 17.2029 43.3505 16.0623 41.7508C14.7598 39.968 13.8633 37.9218 13.4355 35.7557C13.0078 33.5897 13.0593 31.3563 13.5864 29.2122C14.1135 27.0682 15.1034 25.0655 16.4866 23.3446C17.8699 21.6238 19.613 20.2265 21.5936 19.2508C22.1936 18.9695 23.1873 18.482 24.5186 18.5008C25.4553 18.508 26.3777 18.7318 27.2137 19.1547C28.0496 19.5775 28.7764 20.188 29.3373 20.9383C30.0917 21.9528 30.5053 23.1803 30.5186 24.4445C30.5186 24.407 35.1123 9.51953 15.5186 9.51953C7.28732 9.51953 0.518574 17.3195 0.518574 24.182C0.485834 27.8071 1.26084 31.3939 2.78732 34.682C5.28721 40.0052 9.65458 44.2252 15.0604 46.541C20.4662 48.8568 26.5341 49.1072 32.1123 47.2445C30.158 47.8618 28.093 48.0473 26.06 47.7883C24.027 47.5293 22.0745 46.832 20.3373 45.7445H20.3186Z" fill="url(#paint3_radial_307_6175)"/>
<path d="M29.075 28.4C28.9062 28.5875 28.4375 28.8687 28.4375 29.45C28.4375 29.9375 28.7562 30.425 29.3375 30.8187C32.0187 32.6937 37.1 32.4313 37.1187 32.4313C39.1176 32.4299 41.0795 31.8925 42.8 30.875C44.5321 29.8619 45.9694 28.4136 46.9692 26.6737C47.969 24.9339 48.4967 22.9629 48.5 20.9562C48.5563 16.7563 47 13.9625 46.3812 12.725C42.3875 4.9625 33.8187 0.5 24.5 0.5C18.1929 0.499376 12.139 2.98156 7.64766 7.4097C3.15636 11.8378 0.588694 17.856 0.5 24.1625C0.59375 17.3187 7.4 11.7875 15.5 11.7875C16.1562 11.7875 19.9062 11.8437 23.375 13.6625C25.812 14.8735 27.83 16.7871 29.1687 19.1562C30.3125 21.1437 30.5187 23.675 30.5187 24.6875C30.5187 25.7 30.0125 27.1812 29.0562 28.4187L29.075 28.4Z" fill="url(#paint4_radial_307_6175)"/>
<path d="M29.075 28.4C28.9062 28.5875 28.4375 28.8687 28.4375 29.45C28.4375 29.9375 28.7562 30.425 29.3375 30.8187C32.0187 32.6937 37.1 32.4313 37.1187 32.4313C39.1176 32.4299 41.0795 31.8925 42.8 30.875C44.5321 29.8619 45.9694 28.4136 46.9692 26.6737C47.969 24.9339 48.4967 22.9629 48.5 20.9562C48.5563 16.7563 47 13.9625 46.3812 12.725C42.3875 4.9625 33.8187 0.5 24.5 0.5C18.1929 0.499376 12.139 2.98156 7.64766 7.4097C3.15636 11.8378 0.588694 17.856 0.5 24.1625C0.59375 17.3187 7.4 11.7875 15.5 11.7875C16.1562 11.7875 19.9062 11.8437 23.375 13.6625C25.812 14.8735 27.83 16.7871 29.1687 19.1562C30.3125 21.1437 30.5187 23.675 30.5187 24.6875C30.5187 25.7 30.0125 27.1812 29.0562 28.4187L29.075 28.4Z" fill="url(#paint5_radial_307_6175)"/>
</g>
<defs>
<linearGradient id="paint0_linear_307_6175" x1="11.5059" y1="33.6875" x2="44.9559" y2="33.6875" gradientUnits="userSpaceOnUse">
<stop stop-color="#0C59A4"/>
<stop offset="1" stop-color="#114A8B"/>
</linearGradient>
<radialGradient id="paint1_radial_307_6175" cx="0" cy="0" r="1" gradientUnits="userSpaceOnUse" gradientTransform="translate(29.9746 33.9397) scale(17.8875 16.9931)">
<stop offset="0.7" stop-opacity="0"/>
<stop offset="0.9" stop-opacity="0.5"/>
<stop offset="1"/>
</radialGradient>
<linearGradient id="paint2_linear_307_6175" x1="29.1311" y1="19.1758" x2="8.26232" y2="41.9195" gradientUnits="userSpaceOnUse">
<stop stop-color="#1B9DE2"/>
<stop offset="0.2" stop-color="#1595DF"/>
<stop offset="0.7" stop-color="#0680D7"/>
<stop offset="1" stop-color="#0078D4"/>
</linearGradient>
<radialGradient id="paint3_radial_307_6175" cx="0" cy="0" r="1" gradientUnits="userSpaceOnUse" gradientTransform="translate(13.7289 37.8015) rotate(-81.3844) scale(26.8849 21.7203)">
<stop offset="0.8" stop-opacity="0"/>
<stop offset="0.9" stop-opacity="0.5"/>
<stop offset="1"/>
</radialGradient>
<radialGradient id="paint4_radial_307_6175" cx="0" cy="0" r="1" gradientUnits="userSpaceOnUse" gradientTransform="translate(5.35437 9.37175) rotate(92.2906) scale(37.9803 80.8903)">
<stop stop-color="#35C1F1"/>
<stop offset="0.1" stop-color="#34C1ED"/>
<stop offset="0.2" stop-color="#2FC2DF"/>
<stop offset="0.3" stop-color="#2BC3D2"/>
<stop offset="0.7" stop-color="#36C752"/>
</radialGradient>
<radialGradient id="paint5_radial_307_6175" cx="0" cy="0" r="1" gradientUnits="userSpaceOnUse" gradientTransform="translate(45.5113 14.9937) rotate(73.7398) scale(18.2437 14.8358)">
<stop stop-color="#66EB6E"/>
<stop offset="1" stop-color="#66EB6E" stop-opacity="0"/>
</radialGradient>
<clipPath id="clip0_307_6175">
<rect width="48" height="48" fill="white" transform="translate(0.5 0.5)"/>
</clipPath>
</defs>
</svg>
