<svg fill="none" height="40" viewBox="0 0 165 40" width="165" xmlns="http://www.w3.org/2000/svg"><g fill="#fff"><path clip-rule="evenodd" d="m40 0h-40v40h40zm-26.2825 31.2125c1.8032 1.05 3.903 1.5749 6.2996 1.5749 2.3738 0 4.4622-.5249 6.2654-1.5749 1.8031-1.0499 3.2068-2.4992 4.2111-4.348 1.0043-1.8716 1.5064-4.0286 1.5064-6.4708s-.5021-4.5877-1.5064-6.4365c-1.0043-1.8716-2.408-3.3324-4.2111-4.38231-1.8032-1.04993-3.8916-1.57489-6.2654-1.57489-2.3966 0-4.4964.52496-6.2996 1.57489-1.7803 1.04991-3.184 2.51071-4.21108 4.38231-1.00428 1.8488-1.50642 3.9943-1.50642 6.4365s.50214 4.5992 1.50642 6.4708c1.02708 1.8488 2.43078 3.2981 4.21108 4.348z" fill-rule="evenodd"/><path d="m65.072 28.12c-1.184 0-2.264-.24-3.24-.72-.976-.496-1.816-1.152-2.52-1.968s-1.248-1.736-1.632-2.76c-.384-1.04-.576-2.104-.576-3.192 0-1.136.2-2.216.6-3.24.4-1.04.96-1.96 1.68-2.76.736-.816 1.584-1.456 2.544-1.92.976-.48 2.024-.72 3.144-.72 1.184 0 2.264.248 3.24.744s1.808 1.16 2.496 1.992c.704.832 1.248 1.76 1.632 2.784s.576 2.064.576 3.12c0 1.152-.2 2.248-.6 3.288-.4 1.024-.96 1.944-1.68 2.76-.72.8-1.568 1.432-2.544 1.896-.96.464-2 .696-3.12.696zm-7.128-8.64c0 1.024.176 2.008.528 2.952.352.928.84 1.76 1.464 2.496.64.736 1.392 1.32 2.256 1.752.88.432 1.84.648 2.88.648 1.056 0 2.024-.224 2.904-.672s1.632-1.048 2.256-1.8 1.104-1.592 1.44-2.52.504-1.88.504-2.856c0-1.024-.176-2-.528-2.928-.352-.944-.848-1.784-1.488-2.52s-1.4-1.32-2.28-1.752c-.864-.432-1.8-.648-2.808-.648-1.072 0-2.048.224-2.928.672-.864.448-1.608 1.048-2.232 1.8s-1.112 1.592-1.464 2.52c-.336.928-.504 1.88-.504 2.856z"/><path d="m81.3897 28.24c-1.088 0-2.0639-.296-2.9279-.888-.848-.592-1.536-1.304-2.064-2.136v7.896h-.8161v-17.592h.7681v2.592c.528-.816 1.224-1.48 2.088-1.992.88-.528 1.792-.792 2.736-.792.864 0 1.656.184 2.376.552.736.368 1.3679.864 1.8959 1.488.544.608.96 1.296 1.248 2.064.304.768.456 1.552.456 2.352 0 1.152-.24 2.216-.72 3.192s-1.152 1.768-2.016 2.376c-.848.592-1.856.888-3.024.888zm-.1199-.768c.768 0 1.4639-.16 2.0879-.48.6241-.32 1.152-.752 1.584-1.296.448-.544.792-1.152 1.032-1.824s.3601-1.368.3601-2.088c0-.752-.136-1.464-.408-2.136-.272-.688-.656-1.296-1.152-1.824-.48-.528-1.0401-.944-1.68-1.248-.6241-.32-1.3041-.48-2.0401-.48-.464 0-.9599.096-1.4879.288-.512.192-1.008.464-1.488.816-.464.336-.848.72-1.152 1.152s-.48.88-.528 1.344v4.296c.304.656.696 1.248 1.176 1.776.496.512 1.056.928 1.68 1.248.64.304 1.312.456 2.016.456z"/><path d="m94.8879 28.24c-.832 0-1.624-.168-2.376-.504-.736-.352-1.384-.824-1.944-1.416-.544-.608-.976-1.304-1.296-2.088-.304-.8-.456-1.648-.456-2.544 0-1.168.264-2.232.792-3.192s1.24-1.728 2.136-2.304c.912-.576 1.928-.864 3.048-.864 1.152 0 2.176.296 3.072.888.912.576 1.64 1.352 2.1841 2.328.544.96.816 2.032.816 3.216v.192c0 .064-.008.128-.024.192h-11.1841c.08 1.008.36 1.92.84 2.736.496.816 1.128 1.464 1.896 1.944.784.48 1.632.72 2.544.72s1.768-.232 2.568-.696c.8-.48 1.368-1.088 1.704-1.824l.744.192c-.24.576-.616 1.096-1.128 1.56s-1.112.824-1.8 1.08c-.672.256-1.384.384-2.136.384zm-5.256-6.792h10.4161c-.0641-1.056-.3361-1.984-.8161-2.784-.464-.816-1.08-1.456-1.848-1.92s-1.624-.696-2.568-.696c-.928 0-1.776.232-2.544.696-.752.464-1.368 1.104-1.848 1.92-.464.816-.728 1.744-.792 2.784z"/><path d="m113.082 28h-.816v-6.96c0-1.696-.248-2.944-.744-3.744-.48-.8-1.248-1.2-2.304-1.2-.752 0-1.488.184-2.208.552-.72.352-1.352.84-1.896 1.464-.528.608-.912 1.304-1.152 2.088v7.8h-.816v-12.48h.792v3.12c.336-.656.784-1.232 1.344-1.728.576-.496 1.216-.88 1.92-1.152.704-.288 1.424-.432 2.16-.432.656 0 1.216.12 1.68.36.48.24.864.592 1.152 1.056.304.464.528 1.048.672 1.752s.216 1.52.216 2.448z"/><path d="m132.458 28v-15.36l-7.152 12.072h-.576l-7.152-12.072v15.36h-.84v-17.04h.768l7.512 12.672 7.512-12.672h.768v17.04z"/><path d="m137.086 28v-12.48h.816v12.48zm0-15.504v-2.016h.816v2.016z"/><path d="m151.3 28h-.816v-6.96c0-1.696-.248-2.944-.744-3.744-.48-.8-1.248-1.2-2.304-1.2-.752 0-1.488.184-2.208.552-.72.352-1.352.84-1.896 1.464-.528.608-.912 1.304-1.152 2.088v7.8h-.816v-12.48h.792v3.12c.336-.656.784-1.232 1.344-1.728.576-.496 1.216-.88 1.92-1.152.704-.288 1.424-.432 2.16-.432.656 0 1.216.12 1.68.36.48.24.864.592 1.152 1.056.304.464.528 1.048.672 1.752s.216 1.52.216 2.448z"/><path d="m153.54 24.424c0-.736.224-1.368.672-1.896.448-.544 1.056-.968 1.824-1.272.768-.32 1.664-.48 2.688-.48.672 0 1.368.064 2.088.192.72.112 1.368.272 1.944.48v-1.32c0-1.216-.36-2.192-1.08-2.928-.704-.752-1.656-1.128-2.856-1.128-.608 0-1.256.128-1.944.384-.672.256-1.36.632-2.064 1.128l-.408-.6c.816-.56 1.592-.976 2.328-1.248s1.448-.408 2.136-.408c1.44 0 2.584.44 3.432 1.32.848.864 1.272 2.04 1.272 3.528v6.576c0 .176.032.312.096.408.08.08.192.12.336.12v.72c-.112 0-.208 0-.288 0-.064 0-.12-.008-.168-.024-.224-.048-.4-.168-.528-.36s-.2-.4-.216-.624v-1.08c-.576.736-1.32 1.312-2.232 1.728-.912.4-1.888.6-2.928.6-.768 0-1.464-.168-2.088-.504s-1.12-.792-1.488-1.368c-.352-.592-.528-1.24-.528-1.944zm8.784 1.08c.144-.192.248-.376.312-.552.08-.192.12-.36.12-.504v-2.28c-.624-.24-1.272-.416-1.944-.528-.656-.128-1.336-.192-2.04-.192-1.328 0-2.4.272-3.216.816-.816.528-1.224 1.232-1.224 2.112 0 .576.144 1.104.432 1.584.304.48.712.864 1.224 1.152.528.288 1.112.432 1.752.432.992 0 1.896-.184 2.712-.552.832-.384 1.456-.88 1.872-1.488z"/></g></svg>