<svg width="49" height="49" viewBox="0 0 49 49" fill="none" xmlns="http://www.w3.org/2000/svg">
<g clip-path="url(#clip0_307_6165)">
<g opacity="0.53" filter="url(#filter0_f_307_6165)">
<path d="M46.3922 25.2625C46.3922 28.0461 45.826 30.8023 44.7258 33.3739C43.6257 35.9456 42.0132 38.2822 39.9804 40.2505C37.9476 42.2187 35.5343 43.78 32.8783 44.8452C30.2223 45.9104 27.3756 46.4587 24.5008 46.4587C21.626 46.4587 18.7793 45.9104 16.1233 44.8452C13.4673 43.78 11.054 42.2187 9.02123 40.2505C6.98842 38.2822 5.37591 35.9456 4.27576 33.3739C3.17561 30.8023 2.60937 28.0461 2.60938 25.2625C2.60938 19.641 4.91579 14.2497 9.02123 10.2746C13.1267 6.29956 18.6948 4.06641 24.5008 4.06641C27.3756 4.06641 30.2223 4.61466 32.8783 5.67986C35.5343 6.74507 37.9476 8.30637 39.9804 10.2746C42.0132 12.2429 43.6257 14.5795 44.7258 17.1511C45.826 19.7228 46.3922 22.479 46.3922 25.2625Z" fill="black"/>
</g>
<path d="M47.2251 23.3909C47.2251 26.3916 46.6373 29.3629 45.4953 32.1352C44.3532 34.9074 42.6793 37.4264 40.5691 39.5482C38.4589 41.67 35.9538 43.3531 33.1967 44.5014C30.4396 45.6498 27.4845 46.2408 24.5002 46.2408C18.4732 46.2408 12.6931 43.8334 8.43134 39.5482C4.16961 35.263 1.77539 29.4511 1.77539 23.3909C1.77539 17.3307 4.16961 11.5188 8.43134 7.2336C12.6931 2.94841 18.4732 0.541017 24.5002 0.541016C27.4845 0.541015 30.4396 1.13205 33.1967 2.28036C35.9538 3.42868 38.4589 5.11179 40.5691 7.2336C42.6793 9.3554 44.3532 11.8743 45.4953 14.6466C46.6373 17.4189 47.2251 20.3902 47.2251 23.3909Z" fill="url(#paint0_linear_307_6165)" stroke="#CDCDCD" stroke-width="0.351543" stroke-linecap="round" stroke-linejoin="round"/>
<path d="M45.445 23.3914C45.445 28.9767 43.2383 34.3332 39.3106 38.2826C35.3828 42.232 30.0555 44.4508 24.5008 44.4508C18.9461 44.4508 13.6188 42.232 9.69104 38.2826C5.76325 34.3332 3.55664 28.9767 3.55664 23.3914C3.55664 17.8061 5.76325 12.4496 9.69104 8.50018C13.6188 4.55078 18.9461 2.33203 24.5008 2.33203C30.0555 2.33203 35.3828 4.55078 39.3106 8.50018C43.2383 12.4496 45.445 17.8061 45.445 23.3914Z" fill="url(#paint1_radial_307_6165)"/>
<path d="M24.5007 3.42969C24.3315 3.42969 24.1954 3.56662 24.1954 3.73672V7.27829C24.1954 7.44839 24.3315 7.58532 24.5007 7.58532C24.6699 7.58532 24.8061 7.44839 24.8061 7.27829V3.73672C24.8061 3.56662 24.6699 3.42969 24.5007 3.42969ZM22.5031 3.55664C22.4828 3.55445 22.462 3.55445 22.441 3.55689C22.2727 3.57455 22.1514 3.72496 22.169 3.89414L22.3229 5.37578C22.3404 5.54497 22.49 5.66696 22.6583 5.64929C22.8265 5.63164 22.9479 5.48123 22.9303 5.31204L22.7765 3.83041C22.7611 3.68237 22.6447 3.57046 22.5031 3.55664ZM26.5123 3.5581C26.3707 3.57181 26.2542 3.68372 26.2387 3.83173L26.0838 5.31324C26.0661 5.48242 26.1874 5.63297 26.3556 5.65076C26.5239 5.66855 26.6735 5.54668 26.6912 5.37751L26.8462 3.89587C26.8639 3.7267 26.7425 3.57628 26.5743 3.55849C26.5532 3.5563 26.5326 3.55629 26.5123 3.5581ZM20.451 3.85586C20.4307 3.85602 20.41 3.85804 20.3893 3.86242C20.2238 3.89765 20.1188 4.06002 20.1538 4.22643L20.8833 7.69114C20.9183 7.85756 21.0798 7.96317 21.2453 7.92795C21.4108 7.89272 21.5158 7.73047 21.4808 7.56406L20.7513 4.09923C20.7207 3.95361 20.5932 3.85474 20.451 3.85586ZM28.5643 3.85877C28.422 3.85732 28.2946 3.95648 28.2638 4.10206L27.5319 7.56636C27.4967 7.73276 27.6016 7.89517 27.7671 7.93051C27.9326 7.96589 28.0941 7.86034 28.1292 7.69397L28.8612 4.22967C28.8964 4.06328 28.7914 3.90086 28.626 3.86552C28.6053 3.86114 28.5846 3.85877 28.5643 3.85877ZM18.4926 4.41109C18.4531 4.40744 18.4122 4.41181 18.372 4.42524C18.2111 4.47783 18.1236 4.65027 18.1759 4.81204L18.6337 6.22888C18.686 6.39066 18.8577 6.47863 19.0186 6.42606C19.1795 6.37347 19.2668 6.2009 19.2145 6.03912L18.7567 4.62229C18.7175 4.50095 18.6112 4.42122 18.4926 4.41109ZM30.5116 4.41181C30.393 4.42195 30.2867 4.50171 30.2475 4.62304L29.7894 6.03975C29.7371 6.20151 29.8245 6.3741 29.9854 6.42668C30.1463 6.47928 30.3179 6.39138 30.3702 6.22964L30.8283 4.8128C30.8806 4.65103 30.7932 4.47845 30.6323 4.42586C30.5921 4.41273 30.5511 4.40846 30.5116 4.41181ZM16.556 5.12368C16.5163 5.12441 16.4761 5.13316 16.4375 5.15045C16.283 5.21952 16.2138 5.40024 16.2825 5.55567L17.7131 8.79193C17.7818 8.94736 17.9615 9.01686 18.1161 8.94776C18.2706 8.87869 18.3399 8.69797 18.2712 8.54254L16.8405 5.30628C16.789 5.1897 16.675 5.12136 16.556 5.12368ZM32.4701 5.13454C32.3511 5.13236 32.237 5.20027 32.1853 5.31675L30.7504 8.55102C30.6815 8.70636 30.7504 8.88721 30.9049 8.95651C31.0594 9.02581 31.2392 8.95655 31.3081 8.80121L32.743 5.56694C32.812 5.41159 32.7431 5.23075 32.5886 5.16145C32.55 5.14416 32.5098 5.13542 32.4701 5.13454ZM14.7584 6.08003C14.6997 6.07566 14.6393 6.08879 14.5844 6.12074C14.4379 6.20579 14.3881 6.39283 14.4726 6.54014L15.2134 7.8303C15.298 7.97761 15.484 8.02772 15.6305 7.94267C15.777 7.85761 15.8269 7.67058 15.7423 7.52326L15.0015 6.23311C14.9486 6.14104 14.8561 6.0869 14.7584 6.08003ZM34.2431 6.08003C34.1453 6.0866 34.0529 6.14101 34 6.23309L33.2591 7.52324C33.1745 7.67056 33.2245 7.85759 33.371 7.94265C33.5175 8.0277 33.7035 7.97759 33.7881 7.83028L34.5289 6.54012C34.6135 6.39281 34.5637 6.20577 34.4171 6.12071C34.3622 6.08884 34.3017 6.07595 34.2431 6.08003ZM13.0128 7.17473C12.9541 7.17691 12.8952 7.19588 12.8439 7.2333C12.7069 7.33318 12.6767 7.52443 12.776 7.66212L14.8442 10.5288C14.9435 10.6665 15.1339 10.6969 15.2708 10.5971C15.4077 10.4972 15.438 10.3059 15.3386 10.1682L13.2703 7.30158C13.2082 7.21552 13.1107 7.17136 13.0128 7.17473ZM36.0105 7.19034C35.9126 7.18669 35.815 7.23082 35.7528 7.31676L33.6807 10.1806C33.5812 10.3182 33.6112 10.5095 33.748 10.6096C33.8848 10.7097 34.0751 10.6795 34.1747 10.542L36.2466 7.67816C36.3461 7.5406 36.3161 7.34928 36.1793 7.24921C36.128 7.21172 36.0692 7.19245 36.0105 7.19034ZM11.4526 8.49043C11.3746 8.48605 11.2951 8.51224 11.2322 8.56914C11.1065 8.68295 11.0964 8.8763 11.2096 9.00273L12.2009 10.11C12.3141 10.2364 12.5064 10.2466 12.6321 10.1328C12.7579 10.019 12.768 9.82548 12.6548 9.69905L11.6636 8.5919C11.607 8.52866 11.5305 8.49455 11.4526 8.49043ZM37.5511 8.49261C37.4731 8.49699 37.3967 8.53091 37.3401 8.59412L36.3488 9.70114C36.2356 9.82755 36.2456 10.021 36.3713 10.1349C36.4971 10.2487 36.6894 10.2385 36.8026 10.1121L37.794 9.00508C37.9072 8.87866 37.8971 8.68518 37.7714 8.57137C37.7085 8.51447 37.629 8.48851 37.5511 8.49261ZM9.95717 9.93476C9.87922 9.93913 9.8029 9.97305 9.74631 10.0363C9.63312 10.1627 9.64324 10.356 9.76894 10.4699L12.3867 12.8393C12.5124 12.9531 12.7047 12.943 12.8179 12.8166C12.9311 12.6901 12.9211 12.4968 12.7953 12.383L10.1775 10.0135C10.1146 9.95661 10.0351 9.93064 9.95717 9.93476ZM39.0537 9.94511C38.9758 9.94074 38.8962 9.96685 38.8333 10.0237L36.214 12.3913C36.0882 12.505 36.0778 12.6984 36.1909 12.8249C36.304 12.9514 36.4964 12.9617 36.6222 12.848L39.2417 10.4803C39.3675 10.3666 39.3777 10.1733 39.2646 10.0467C39.208 9.98351 39.1317 9.94929 39.0537 9.94511ZM8.71361 11.5426C8.61572 11.5389 8.51811 11.5833 8.45597 11.6693C8.35653 11.8069 8.38669 11.9981 8.52358 12.0981L9.7222 12.9737C9.85906 13.0737 10.0492 13.0435 10.1487 12.9059C10.2481 12.7683 10.218 12.5769 10.0812 12.4769L8.88258 11.6013C8.83129 11.5638 8.77235 11.5447 8.71361 11.5426ZM40.2961 11.5537C40.2374 11.5559 40.1785 11.5748 40.1272 11.6123L38.928 12.4872C38.7911 12.5871 38.7608 12.7784 38.8601 12.9161C38.9595 13.0538 39.1497 13.0841 39.2866 12.9843L40.4859 12.1094C40.6228 12.0095 40.653 11.8183 40.5536 11.6806C40.4915 11.5945 40.394 11.5504 40.2961 11.5537ZM7.5515 13.2576C7.45379 13.2642 7.36135 13.3186 7.30848 13.4107C7.2239 13.558 7.27373 13.745 7.42024 13.8301L10.4705 15.6008C10.617 15.6859 10.803 15.6358 10.8876 15.4885C10.9722 15.3412 10.9223 15.1541 10.7758 15.0691L7.7256 13.2983C7.67068 13.2664 7.61013 13.2535 7.5515 13.2576ZM41.4499 13.2576C41.3913 13.2532 41.3308 13.2664 41.2758 13.2983L38.2256 15.0691C38.0791 15.1541 38.0292 15.3412 38.1138 15.4885C38.1984 15.6358 38.3844 15.6859 38.5309 15.6009L41.5813 13.8301C41.7278 13.745 41.7777 13.558 41.6931 13.4107C41.6402 13.3186 41.5476 13.2645 41.4499 13.2576ZM6.67287 15.0856C6.55387 15.0827 6.43976 15.1512 6.38807 15.2677C6.31915 15.4231 6.38802 15.6039 6.54253 15.6732L7.89573 16.2801C8.05023 16.3494 8.2301 16.2802 8.29901 16.1248C8.36792 15.9694 8.29892 15.7886 8.14442 15.7193L6.79135 15.1124C6.75275 15.095 6.71253 15.0864 6.67287 15.0856ZM42.3345 15.0982C42.2948 15.099 42.2545 15.1077 42.2159 15.125L40.8624 15.7309C40.7079 15.8001 40.6388 15.9808 40.7076 16.1362C40.7764 16.2916 40.9563 16.3611 41.1108 16.2919L42.4643 15.6859C42.6188 15.6168 42.6878 15.436 42.619 15.2806C42.5674 15.164 42.4535 15.0959 42.3345 15.0982ZM5.88978 16.9962C5.77117 17.0062 5.66485 17.0859 5.62554 17.2072C5.57316 17.3689 5.66036 17.5416 5.82125 17.5943L9.17013 18.6915C9.33097 18.7442 9.50267 18.6564 9.55509 18.4947C9.60746 18.333 9.52026 18.1603 9.35938 18.1076L6.0105 17.0104C5.97031 16.9972 5.92931 16.9929 5.88978 16.9962ZM43.1161 17.0094C43.0766 17.0057 43.0358 17.0101 42.9955 17.0235L39.6459 18.1184C39.485 18.1709 39.3976 18.3435 39.4499 18.5053C39.5022 18.6671 39.6738 18.7549 39.8347 18.7023L43.1843 17.6075C43.3451 17.5549 43.4327 17.3823 43.3804 17.2206C43.3411 17.0992 43.2347 17.0195 43.1161 17.0094ZM5.4019 19.0019C5.25964 19.0004 5.13206 19.0997 5.10129 19.2453C5.0661 19.4117 5.17108 19.5741 5.33653 19.6094L6.78581 19.9191C6.95129 19.9545 7.11279 19.8489 7.14796 19.6826C7.18315 19.5162 7.07817 19.3538 6.91272 19.3184L5.46357 19.0087C5.44289 19.0044 5.42221 19.0019 5.4019 19.0019ZM43.6002 19.0048C43.5799 19.0049 43.5593 19.0077 43.5387 19.0113L42.0894 19.3209C41.9239 19.3563 41.819 19.5185 41.8541 19.6849C41.8893 19.8513 42.0508 19.9569 42.2163 19.9216L43.6655 19.612C43.8309 19.5767 43.936 19.4143 43.9008 19.2479C43.8701 19.1023 43.7424 19.0036 43.6002 19.0048ZM5.03262 21.0193C4.89102 21.0329 4.77446 21.1446 4.7589 21.2926C4.74113 21.4618 4.86215 21.6124 5.03038 21.6303L8.53306 22.0026C8.7013 22.0205 8.85109 21.8987 8.86886 21.7295C8.88663 21.5604 8.76548 21.4097 8.59725 21.3919L5.09457 21.0195C5.07353 21.0173 5.05286 21.0173 5.03262 21.0193ZM43.9721 21.0457C43.9519 21.0435 43.931 21.0435 43.91 21.046L40.4069 21.4136C40.2387 21.4312 40.1174 21.5816 40.1349 21.7508C40.1525 21.92 40.3021 22.042 40.4703 22.0243L43.9734 21.6567C44.1416 21.6391 44.2629 21.4887 44.2454 21.3195C44.23 21.1715 44.1137 21.0596 43.9721 21.0457ZM4.97332 23.0843C4.80414 23.0843 4.66797 23.2213 4.66797 23.3914C4.66797 23.5615 4.80414 23.6984 4.97332 23.6984H6.45489C6.62406 23.6984 6.76038 23.5615 6.76038 23.3914C6.76038 23.2213 6.62406 23.0843 6.45489 23.0843H4.97332ZM42.5465 23.0843C42.3774 23.0843 42.2412 23.2213 42.2412 23.3914C42.2412 23.5615 42.3774 23.6984 42.5465 23.6984H44.0281C44.1973 23.6984 44.3335 23.5615 44.3335 23.3914C44.3335 23.2213 44.1973 23.0843 44.0281 23.0843H42.5465ZM8.59316 24.7581C8.57292 24.7559 8.55225 24.7559 8.53121 24.7584L5.028 25.126C4.85973 25.1436 4.73845 25.294 4.75599 25.4632C4.77354 25.6324 4.92313 25.7544 5.09138 25.7367L8.5946 25.3691C8.76286 25.3515 8.88415 25.201 8.8666 25.0319C8.85123 24.8838 8.73475 24.7719 8.59316 24.7581ZM40.4064 24.7798C40.2648 24.7935 40.1482 24.9052 40.1327 25.0532C40.1149 25.2224 40.2359 25.373 40.4042 25.3909L43.9069 25.7632C44.0751 25.7811 44.2249 25.6593 44.2427 25.4901C44.2604 25.321 44.1393 25.1703 43.971 25.1525L40.4685 24.7801C40.4475 24.7779 40.4267 24.7779 40.4064 24.7798ZM6.84696 26.8541C6.82665 26.8543 6.80597 26.8563 6.7853 26.8606L5.33601 27.1702C5.17053 27.2056 5.06563 27.368 5.10077 27.5343C5.13596 27.7007 5.29745 27.8062 5.46293 27.7709L6.91221 27.4615C7.07769 27.4261 7.1826 27.2637 7.14745 27.0973C7.11669 26.9517 6.98921 26.8529 6.84696 26.8541ZM42.1541 26.857C42.0118 26.8555 41.8844 26.9547 41.8536 27.1003C41.8184 27.2667 41.9232 27.4291 42.0887 27.4644L43.538 27.7741C43.7035 27.8095 43.865 27.7041 43.9001 27.5377C43.9353 27.3713 43.8303 27.2088 43.6649 27.1734L42.2157 26.8638C42.1951 26.8594 42.1744 26.857 42.1541 26.857ZM9.28742 28.0663C9.24788 28.0627 9.20706 28.067 9.16683 28.0805L5.81717 29.1753C5.65628 29.2279 5.5689 29.4005 5.6212 29.5622C5.6735 29.724 5.84513 29.8119 6.00602 29.7593L9.35556 28.6645C9.51645 28.6119 9.60396 28.4393 9.55166 28.2775C9.51241 28.1562 9.40601 28.0764 9.28742 28.0663ZM39.7107 28.0772C39.5921 28.0872 39.4858 28.1669 39.4465 28.2881C39.3941 28.4499 39.4813 28.6225 39.6422 28.6752L42.9911 29.7724C43.1519 29.8251 43.3236 29.7374 43.376 29.5757C43.4285 29.4139 43.3412 29.2413 43.1803 29.1886L39.8314 28.0914C39.7912 28.0782 39.7502 28.0738 39.7107 28.0772ZM8.0092 30.4643C7.96952 30.465 7.92936 30.4736 7.89072 30.4909L6.53713 31.0969C6.38258 31.166 6.3136 31.3469 6.3824 31.5023C6.45125 31.6577 6.631 31.727 6.78554 31.6578L8.13915 31.052C8.2937 30.9828 8.36267 30.802 8.29387 30.6466C8.24229 30.5301 8.1282 30.4619 8.0092 30.4643ZM40.9873 30.476C40.8683 30.473 40.7542 30.5415 40.7025 30.658C40.6336 30.8134 40.7025 30.9942 40.857 31.0635L42.2101 31.6704C42.3646 31.7397 42.5444 31.6705 42.6134 31.5151C42.6823 31.3598 42.6134 31.1789 42.4589 31.1096L41.1058 30.5027C41.0672 30.4854 41.027 30.4768 40.9873 30.476ZM10.6446 31.1413C10.586 31.1369 10.5254 31.1501 10.4705 31.182L7.42024 32.9528C7.27373 33.0378 7.2239 33.2249 7.30848 33.3722C7.39307 33.5195 7.57909 33.5696 7.7256 33.4846L10.7758 31.7139C10.9223 31.6289 10.9722 31.4417 10.8876 31.2944C10.8347 31.2023 10.7423 31.1482 10.6446 31.1413ZM38.357 31.1413C38.2593 31.1479 38.1667 31.2023 38.1138 31.2944C38.0292 31.4417 38.0791 31.6289 38.2256 31.7139L41.2758 33.4846C41.4223 33.5696 41.6085 33.5195 41.6931 33.3722C41.7777 33.2249 41.7278 33.0378 41.5813 32.9528L38.5309 31.182C38.476 31.1501 38.4156 31.1372 38.357 31.1413ZM9.88377 33.7399C9.825 33.7421 9.76616 33.7611 9.71481 33.7986L8.51567 34.6735C8.37874 34.7734 8.34845 34.9646 8.44777 35.1023C8.54712 35.24 8.73731 35.2704 8.87424 35.1705L10.0735 34.2956C10.2105 34.1958 10.2407 34.0045 10.1414 33.8668C10.0793 33.7808 9.98166 33.7365 9.88377 33.7399ZM39.1104 33.7503C39.0125 33.7466 38.9149 33.791 38.8528 33.8769C38.7533 34.0146 38.7835 34.2059 38.9204 34.3059L40.119 35.1815C40.2559 35.2815 40.446 35.2512 40.5455 35.1136C40.6449 34.9759 40.6148 34.7847 40.478 34.6847L39.2794 33.8091C39.2281 33.7716 39.1691 33.7524 39.1104 33.7503ZM12.5997 33.8563C12.5217 33.8519 12.4422 33.878 12.3793 33.9349L9.75989 36.3025C9.63408 36.4162 9.62386 36.6096 9.73696 36.7361C9.85005 36.8626 10.0424 36.8728 10.1682 36.7591L12.7876 34.3915C12.9134 34.2778 12.9236 34.0844 12.8105 33.9579C12.754 33.8947 12.6776 33.8604 12.5997 33.8563ZM36.3945 33.8647C36.3166 33.8691 36.2401 33.903 36.1835 33.9662C36.0703 34.0927 36.0805 34.286 36.2062 34.3998L38.8239 36.7693C38.9496 36.8831 39.142 36.8729 39.2552 36.7465C39.3684 36.6201 39.3583 36.4268 39.2326 36.313L36.6147 33.9435C36.5518 33.8866 36.4725 33.8606 36.3945 33.8647ZM15.0847 36.114C14.9868 36.1104 14.8891 36.1544 14.8269 36.2404L12.7549 39.1043C12.6554 39.2419 12.6853 39.4332 12.8221 39.5333C12.9589 39.6333 13.1492 39.6032 13.2487 39.4657L15.3207 36.6018C15.4202 36.4642 15.3902 36.2729 15.2535 36.1728C15.2022 36.1353 15.1434 36.1161 15.0847 36.114ZM33.8997 36.1269C33.841 36.1291 33.7821 36.1479 33.7308 36.1854C33.5939 36.2853 33.5636 36.4766 33.6629 36.6143L35.731 39.4809C35.8304 39.6186 36.0206 39.6491 36.1575 39.5492C36.2945 39.4493 36.3247 39.2581 36.2254 39.1204L34.1573 36.2537C34.0952 36.1677 33.9976 36.1235 33.8997 36.1269ZM12.4099 36.5692C12.3319 36.5736 12.2555 36.6075 12.1989 36.6707L11.2076 37.7777C11.0944 37.9041 11.1044 38.0976 11.2301 38.2114C11.3559 38.3253 11.5482 38.3151 11.6614 38.1886L12.6528 37.0816C12.766 36.9552 12.7559 36.7617 12.6302 36.6479C12.5673 36.591 12.4878 36.5651 12.4099 36.5692ZM36.5897 36.5707C36.5117 36.5663 36.4323 36.5925 36.3695 36.6494C36.2437 36.7632 36.2336 36.9565 36.3468 37.083L37.3379 38.1902C37.4511 38.3167 37.6434 38.3268 37.7692 38.213C37.8949 38.0992 37.905 37.9057 37.7918 37.7793L36.8006 36.6721C36.744 36.6089 36.6676 36.5748 36.5897 36.5707ZM17.9781 37.7988C17.8591 37.7959 17.7451 37.8644 17.6934 37.9809L16.2584 41.2151C16.1895 41.3705 16.2583 41.5513 16.4128 41.6206C16.5673 41.6899 16.7472 41.6207 16.8161 41.4653L18.2512 38.231C18.3201 38.0757 18.2512 37.8949 18.0967 37.8256C18.0581 37.8082 18.0178 37.7996 17.9781 37.7988ZM31.004 37.8077C30.9643 37.8084 30.924 37.817 30.8853 37.8343C30.7308 37.9034 30.6616 38.0841 30.7304 38.2395L32.1609 41.4758C32.2296 41.6311 32.4095 41.7007 32.5641 41.6316C32.7186 41.5625 32.7878 41.3818 32.7191 41.2264L31.2885 37.9901C31.237 37.8736 31.123 37.8054 31.004 37.8077ZM15.4564 38.7988C15.3587 38.8053 15.2663 38.8597 15.2134 38.9518L14.4726 40.242C14.3881 40.3893 14.4379 40.5763 14.5844 40.6614C14.7309 40.7464 14.9169 40.6963 15.0015 40.549L15.7423 39.2588C15.8269 39.1115 15.7771 38.9245 15.6305 38.8394C15.5756 38.8076 15.5151 38.7947 15.4564 38.7988ZM33.545 38.7988C33.4864 38.7944 33.426 38.8076 33.371 38.8395C33.2245 38.9245 33.1747 39.1116 33.2593 39.2589L34 40.549C34.0846 40.6963 34.2707 40.7464 34.4171 40.6614C34.5637 40.5763 34.6135 40.3893 34.5289 40.242L33.7881 38.9518C33.7352 38.8598 33.6427 38.8056 33.545 38.7988ZM21.1728 38.845C21.0305 38.8435 20.9031 38.9427 20.8723 39.0883L20.1404 42.5526C20.1052 42.719 20.2101 42.8814 20.3756 42.9167C20.5411 42.9521 20.7026 42.8466 20.7378 42.6802L21.4697 39.2159C21.5049 39.0495 21.3999 38.8871 21.2345 38.8518C21.2138 38.8474 21.1931 38.845 21.1728 38.845ZM27.8178 38.8472C27.7975 38.8474 27.777 38.8494 27.7563 38.8538C27.5908 38.889 27.4858 39.0512 27.5208 39.2176L28.2503 42.6825C28.2853 42.8489 28.4468 42.9545 28.6123 42.9193C28.7778 42.884 28.8828 42.7217 28.8478 42.5553L28.1182 39.0907C28.0875 38.9451 27.9601 38.8461 27.8178 38.8472ZM24.5007 39.1966C24.3315 39.1966 24.1954 39.3336 24.1954 39.5037V43.0452C24.1954 43.2153 24.3315 43.3523 24.5007 43.3523C24.6699 43.3523 24.8061 43.2153 24.8061 43.0452V39.5037C24.8061 39.3336 24.6699 39.1966 24.5007 39.1966ZM18.8955 40.341C18.7769 40.3512 18.6705 40.4309 18.6312 40.5522L18.1733 41.9691C18.121 42.1309 18.2084 42.3034 18.3692 42.356C18.5301 42.4086 18.7018 42.3206 18.7541 42.1588L19.212 40.7421C19.2643 40.5804 19.1769 40.4078 19.0161 40.3552C18.9759 40.3421 18.935 40.3377 18.8955 40.341ZM30.1036 40.3418C30.064 40.3381 30.0232 40.3425 29.983 40.3558C29.8221 40.4084 29.7346 40.581 29.7869 40.7428L30.2447 42.1596C30.297 42.3214 30.4687 42.4092 30.6295 42.3567C30.7904 42.3041 30.8779 42.1316 30.8256 41.9698L30.3677 40.553C30.3284 40.4317 30.2222 40.3519 30.1036 40.3418ZM22.584 41.1309C22.4424 41.1446 22.3257 41.2564 22.3103 41.4044L22.1554 42.886C22.1377 43.0552 22.2589 43.2056 22.4272 43.2234C22.5954 43.2412 22.7451 43.1193 22.7628 42.9501L22.9177 41.4686C22.9354 41.2995 22.8142 41.1489 22.6459 41.1311C22.6249 41.1289 22.6042 41.1289 22.584 41.1309ZM26.4052 41.1323C26.3849 41.1301 26.3641 41.1301 26.3431 41.1326C26.1748 41.1502 26.0535 41.3006 26.0711 41.4698L26.225 42.9516C26.2426 43.1208 26.3921 43.2426 26.5604 43.225C26.7287 43.2073 26.85 43.0569 26.8324 42.8877L26.6786 41.4061C26.6632 41.258 26.5468 41.1462 26.4052 41.1323Z" fill="#F4F2F3"/>
<g opacity="0.409" filter="url(#filter1_f_307_6165)">
<path d="M38.8106 11.1094L22.1041 20.8693L11.541 37.5901L26.9939 26.0813L38.8106 11.1094Z" fill="black"/>
</g>
<path d="M26.8941 25.9115L22.1055 20.8691L39.0927 9.37891L26.8941 25.9115Z" fill="#FF5150"/>
<path d="M26.8934 25.9116L22.1048 20.8691L9.90625 37.4017L26.8934 25.9116Z" fill="#F1F1F1"/>
<path opacity="0.243" d="M9.90625 37.4017L26.8934 25.9115L39.092 9.37891L9.90625 37.4017Z" fill="black"/>
</g>
<defs>
<filter id="filter0_f_307_6165" x="-6.34415" y="-4.88712" width="61.6903" height="60.2996" filterUnits="userSpaceOnUse" color-interpolation-filters="sRGB">
<feFlood flood-opacity="0" result="BackgroundImageFix"/>
<feBlend mode="normal" in="SourceGraphic" in2="BackgroundImageFix" result="shape"/>
<feGaussianBlur stdDeviation="4.47676" result="effect1_foregroundBlur_307_6165"/>
</filter>
<filter id="filter1_f_307_6165" x="8.99618" y="8.56454" width="32.3592" height="31.5701" filterUnits="userSpaceOnUse" color-interpolation-filters="sRGB">
<feFlood flood-opacity="0" result="BackgroundImageFix"/>
<feBlend mode="normal" in="SourceGraphic" in2="BackgroundImageFix" result="shape"/>
<feGaussianBlur stdDeviation="1.27242" result="effect1_foregroundBlur_307_6165"/>
</filter>
<linearGradient id="paint0_linear_307_6165" x1="24.4994" y1="46.2403" x2="24.4994" y2="0.540896" gradientUnits="userSpaceOnUse">
<stop stop-color="#BDBDBD"/>
<stop offset="1" stop-color="white"/>
</linearGradient>
<radialGradient id="paint1_radial_307_6165" cx="0" cy="0" r="1" gradientUnits="userSpaceOnUse" gradientTransform="translate(24.5952 20.3207) scale(22.7248 22.8498)">
<stop stop-color="#06C2E7"/>
<stop offset="0.25" stop-color="#0DB8EC"/>
<stop offset="0.5" stop-color="#12AEF1"/>
<stop offset="0.75" stop-color="#1F86F9"/>
<stop offset="1" stop-color="#107DDD"/>
</radialGradient>
<clipPath id="clip0_307_6165">
<rect width="48" height="48" fill="white" transform="translate(0.5 0.5)"/>
</clipPath>
</defs>
</svg>
