<svg width="152" height="204" viewBox="0 0 152 204" fill="none" xmlns="http://www.w3.org/2000/svg">
<path fill-rule="evenodd" clip-rule="evenodd" d="M111.478 24H28V107.478H40.5217V120H124V36.5217H111.478V24ZM111.478 36.5217H40.5217V107.478H111.478V36.5217Z" fill="#0D0D0D"/>
<path d="M26.504 170.288C24.84 170.288 23.376 169.92 22.112 169.184C20.848 168.448 19.856 167.432 19.136 166.136C18.432 164.824 18.08 163.312 18.08 161.6C18.08 159.888 18.432 158.384 19.136 157.088C19.856 155.776 20.848 154.752 22.112 154.016C23.376 153.28 24.84 152.912 26.504 152.912C28.168 152.912 29.632 153.28 30.896 154.016C32.176 154.752 33.168 155.776 33.872 157.088C34.592 158.384 34.952 159.888 34.952 161.6C34.952 163.312 34.592 164.824 33.872 166.136C33.168 167.432 32.176 168.448 30.896 169.184C29.632 169.92 28.168 170.288 26.504 170.288ZM26.504 167.384C27.544 167.384 28.448 167.152 29.216 166.688C29.984 166.208 30.576 165.536 30.992 164.672C31.424 163.808 31.64 162.784 31.64 161.6C31.64 160.4 31.424 159.376 30.992 158.528C30.576 157.664 29.984 157 29.216 156.536C28.448 156.072 27.544 155.84 26.504 155.84C25.464 155.84 24.56 156.072 23.792 156.536C23.024 157 22.424 157.664 21.992 158.528C21.576 159.376 21.368 160.4 21.368 161.6C21.368 162.784 21.576 163.808 21.992 164.672C22.424 165.536 23.024 166.208 23.792 166.688C24.56 167.152 25.464 167.384 26.504 167.384ZM37.1118 175.28V158.096H39.9918L40.3518 159.752C40.6078 159.4 40.9118 159.08 41.2638 158.792C41.6158 158.488 42.0398 158.248 42.5358 158.072C43.0318 157.896 43.6078 157.808 44.2638 157.808C45.3838 157.808 46.3758 158.08 47.2398 158.624C48.1198 159.168 48.8158 159.912 49.3278 160.856C49.8398 161.8 50.0958 162.872 50.0958 164.072C50.0958 165.256 49.8398 166.32 49.3278 167.264C48.8158 168.208 48.1198 168.952 47.2398 169.496C46.3758 170.024 45.3838 170.288 44.2638 170.288C43.3838 170.288 42.6158 170.128 41.9598 169.808C41.3038 169.472 40.7678 169.016 40.3518 168.44V175.28H37.1118ZM43.5438 167.456C44.1678 167.456 44.7278 167.312 45.2238 167.024C45.7198 166.736 46.1038 166.336 46.3758 165.824C46.6638 165.312 46.8078 164.728 46.8078 164.072C46.8078 163.4 46.6638 162.808 46.3758 162.296C46.1038 161.784 45.7198 161.384 45.2238 161.096C44.7278 160.792 44.1678 160.64 43.5438 160.64C42.9038 160.64 42.3358 160.792 41.8398 161.096C41.3438 161.384 40.9518 161.784 40.6638 162.296C40.3918 162.808 40.2558 163.392 40.2558 164.048C40.2558 164.704 40.3918 165.296 40.6638 165.824C40.9518 166.336 41.3438 166.736 41.8398 167.024C42.3358 167.312 42.9038 167.456 43.5438 167.456ZM58.2378 170.288C57.0218 170.288 55.9418 170.032 54.9978 169.52C54.0698 169.008 53.3418 168.288 52.8138 167.36C52.2858 166.432 52.0218 165.368 52.0218 164.168C52.0218 162.92 52.2778 161.824 52.7898 160.88C53.3178 159.92 54.0458 159.168 54.9738 158.624C55.9178 158.08 57.0138 157.808 58.2618 157.808C59.4458 157.808 60.4858 158.064 61.3818 158.576C62.2938 159.088 62.9978 159.792 63.4938 160.688C64.0058 161.568 64.2618 162.568 64.2618 163.688C64.2618 163.848 64.2618 164.032 64.2618 164.24C64.2618 164.432 64.2458 164.632 64.2138 164.84H54.3498V162.848H60.9738C60.9258 162.128 60.6458 161.544 60.1338 161.096C59.6378 160.648 59.0138 160.424 58.2618 160.424C57.7018 160.424 57.1898 160.552 56.7258 160.808C56.2618 161.048 55.8938 161.416 55.6218 161.912C55.3498 162.408 55.2138 163.032 55.2138 163.784V164.48C55.2138 165.12 55.3418 165.68 55.5978 166.16C55.8538 166.64 56.2058 167.008 56.6538 167.264C57.1178 167.52 57.6378 167.648 58.2138 167.648C58.8058 167.648 59.3018 167.52 59.7018 167.264C60.1018 166.992 60.4058 166.648 60.6138 166.232H63.9258C63.6858 166.984 63.3018 167.672 62.7738 168.296C62.2458 168.904 61.5978 169.392 60.8298 169.76C60.0618 170.112 59.1978 170.288 58.2378 170.288ZM66.3873 170V158.096H69.2433L69.4833 160.088C69.8513 159.4 70.3793 158.848 71.0673 158.432C71.7553 158.016 72.5793 157.808 73.5393 157.808C74.5313 157.808 75.3713 158.024 76.0593 158.456C76.7473 158.872 77.2753 159.488 77.6433 160.304C78.0113 161.12 78.1953 162.128 78.1953 163.328V170H74.9553V163.616C74.9553 162.624 74.7553 161.864 74.3553 161.336C73.9553 160.808 73.3233 160.544 72.4593 160.544C71.9153 160.544 71.4273 160.68 70.9953 160.952C70.5633 161.208 70.2273 161.584 69.9873 162.08C69.7473 162.56 69.6273 163.152 69.6273 163.856V170H66.3873ZM80.7215 170V153.2H84.5855L89.8175 163.664L94.9775 153.2H98.8415V170H95.6015V158.696L91.0655 167.6H88.4975L83.9615 158.672V170H80.7215ZM101.642 170V158.096H104.882V170H101.642ZM103.25 156.368C102.674 156.368 102.194 156.2 101.81 155.864C101.442 155.512 101.258 155.072 101.258 154.544C101.258 154.016 101.442 153.584 101.81 153.248C102.194 152.896 102.674 152.72 103.25 152.72C103.842 152.72 104.322 152.896 104.69 153.248C105.074 153.584 105.266 154.016 105.266 154.544C105.266 155.072 105.074 155.512 104.69 155.864C104.322 156.2 103.842 156.368 103.25 156.368ZM107.629 170V158.096H110.485L110.725 160.088C111.093 159.4 111.621 158.848 112.309 158.432C112.997 158.016 113.821 157.808 114.781 157.808C115.773 157.808 116.613 158.024 117.301 158.456C117.989 158.872 118.517 159.488 118.885 160.304C119.253 161.12 119.437 162.128 119.437 163.328V170H116.197V163.616C116.197 162.624 115.997 161.864 115.597 161.336C115.197 160.808 114.565 160.544 113.701 160.544C113.157 160.544 112.669 160.68 112.237 160.952C111.805 161.208 111.469 161.584 111.229 162.08C110.989 162.56 110.869 163.152 110.869 163.856V170H107.629ZM126.019 170.288C125.011 170.288 124.171 170.128 123.499 169.808C122.843 169.488 122.355 169.056 122.035 168.512C121.715 167.968 121.555 167.368 121.555 166.712C121.555 165.976 121.739 165.336 122.107 164.792C122.491 164.232 123.067 163.792 123.835 163.472C124.603 163.152 125.571 162.992 126.739 162.992H129.739C129.739 162.416 129.651 161.944 129.475 161.576C129.315 161.192 129.059 160.912 128.707 160.736C128.371 160.544 127.939 160.448 127.411 160.448C126.787 160.448 126.251 160.584 125.803 160.856C125.371 161.128 125.099 161.544 124.987 162.104H121.843C121.939 161.224 122.235 160.464 122.731 159.824C123.227 159.184 123.883 158.688 124.699 158.336C125.515 157.984 126.419 157.808 127.411 157.808C128.547 157.808 129.531 158 130.363 158.384C131.195 158.752 131.835 159.304 132.283 160.04C132.747 160.76 132.979 161.64 132.979 162.68V170H130.243L129.883 168.152C129.723 168.472 129.515 168.76 129.259 169.016C129.019 169.272 128.739 169.496 128.419 169.688C128.099 169.88 127.739 170.024 127.339 170.12C126.939 170.232 126.499 170.288 126.019 170.288ZM126.787 167.792C127.219 167.792 127.595 167.72 127.915 167.576C128.251 167.416 128.531 167.208 128.755 166.952C128.995 166.696 129.179 166.4 129.307 166.064C129.451 165.728 129.547 165.368 129.595 164.984H127.099C126.603 164.984 126.195 165.048 125.875 165.176C125.571 165.288 125.347 165.456 125.203 165.68C125.059 165.888 124.987 166.136 124.987 166.424C124.987 166.712 125.059 166.96 125.203 167.168C125.347 167.376 125.555 167.536 125.827 167.648C126.099 167.744 126.419 167.792 126.787 167.792Z" fill="#0D0D0D"/>
</svg>
